<svg width="499" height="232" viewBox="0 0 499 232" fill="none" xmlns="http://www.w3.org/2000/svg">
<path d="M69.648 146.584C56.976 146.584 47.088 143.176 39.984 136.36C32.88 129.544 29.328 120.28 29.328 108.568C29.328 100.984 30.816 94.36 33.792 88.696C36.864 83.032 41.088 78.616 46.464 75.448C51.936 72.184 58.32 70.552 65.616 70.552C72.816 70.552 78.816 72.088 83.616 75.16C88.512 78.232 92.16 82.552 94.56 88.12C97.056 93.592 98.304 99.976 98.304 107.272V112.312H47.184V101.512H82.464L80.016 103.528C80.016 97.48 78.768 92.92 76.272 89.848C73.872 86.68 70.368 85.096 65.76 85.096C60.672 85.096 56.736 86.968 53.952 90.712C51.264 94.456 49.92 99.832 49.92 106.84V109.144C49.92 116.248 51.648 121.528 55.104 124.984C58.656 128.44 63.744 130.168 70.368 130.168C74.304 130.168 78 129.688 81.456 128.728C85.008 127.672 88.368 126.04 91.536 123.832L97.584 138.232C93.936 140.92 89.712 142.984 84.912 144.424C80.208 145.864 75.12 146.584 69.648 146.584ZM140.468 146.584C134.132 146.584 128.564 145.048 123.764 141.976C118.964 138.904 115.22 134.536 112.532 128.872C109.844 123.208 108.5 116.392 108.5 108.424C108.5 100.552 109.844 93.784 112.532 88.12C115.22 82.456 118.964 78.136 123.764 75.16C128.564 72.088 134.132 70.552 140.468 70.552C146.324 70.552 151.556 71.992 156.164 74.872C160.868 77.656 163.94 81.448 165.38 86.248H163.796L165.524 71.992H186.404C186.116 75.16 185.828 78.376 185.54 81.64C185.348 84.808 185.252 87.928 185.252 91V145H163.652L163.508 131.32H165.236C163.7 135.928 160.628 139.624 156.02 142.408C151.412 145.192 146.228 146.584 140.468 146.584ZM147.092 130.168C152.084 130.168 156.116 128.392 159.188 124.84C162.26 121.288 163.796 115.816 163.796 108.424C163.796 101.032 162.26 95.608 159.188 92.152C156.116 88.696 152.084 86.968 147.092 86.968C142.1 86.968 138.068 88.696 134.996 92.152C131.924 95.608 130.388 101.032 130.388 108.424C130.388 115.816 131.876 121.288 134.852 124.84C137.924 128.392 142.004 130.168 147.092 130.168ZM202.94 145V91.288C202.94 88.12 202.844 84.904 202.652 81.64C202.556 78.376 202.316 75.16 201.932 71.992H222.812L225.26 93.304H221.948C222.908 88.12 224.444 83.848 226.556 80.488C228.764 77.128 231.452 74.632 234.62 73C237.884 71.368 241.58 70.552 245.708 70.552C247.532 70.552 248.972 70.648 250.028 70.84C251.084 70.936 252.14 71.176 253.196 71.56L253.052 90.712C251.036 89.848 249.308 89.32 247.868 89.128C246.524 88.84 244.796 88.696 242.684 88.696C238.652 88.696 235.292 89.464 232.604 91C230.012 92.536 228.044 94.792 226.7 97.768C225.452 100.744 224.828 104.344 224.828 108.568V145H202.94ZM262.287 145V91C262.287 87.928 262.191 84.808 261.999 81.64C261.807 78.376 261.519 75.16 261.135 71.992H282.015L283.599 85.528H281.871C284.271 80.728 287.679 77.032 292.095 74.44C296.511 71.848 301.647 70.552 307.503 70.552C316.047 70.552 322.431 73.048 326.655 78.04C330.975 82.936 333.135 90.568 333.135 100.936V145H311.391V101.944C311.391 96.664 310.431 92.92 308.511 90.712C306.591 88.504 303.711 87.4 299.871 87.4C295.071 87.4 291.231 88.936 288.351 92.008C285.471 94.984 284.031 99.016 284.031 104.104V145H262.287ZM350.6 145V71.992H372.344V145H350.6ZM349.736 60.04V39.736H373.064V60.04H349.736ZM395.588 145V88.264H381.764V71.992H401.78L395.588 77.608V67.096C395.588 57.592 397.988 50.44 402.788 45.64C407.684 40.84 414.836 38.44 424.244 38.44C426.548 38.44 428.948 38.584 431.444 38.872C433.94 39.16 436.148 39.736 438.068 40.6V57.304C436.82 56.824 435.332 56.488 433.604 56.296C431.876 56.008 430.196 55.864 428.564 55.864C425.204 55.864 422.468 56.776 420.356 58.6C418.244 60.424 417.188 63.544 417.188 67.96V75.592L414.164 71.992H467.156V145H445.412V88.264H417.332V145H395.588ZM444.548 60.04V39.736H467.876V60.04H444.548Z" fill="#484DFE"/>
<path d="M26.432 216.704C21.6107 216.704 17.472 215.744 14.016 213.824C10.56 211.904 7.89333 209.216 6.016 205.76C4.18133 202.261 3.264 198.144 3.264 193.408C3.264 188.672 4.18133 184.576 6.016 181.12C7.89333 177.664 10.56 174.976 14.016 173.056C17.472 171.136 21.6107 170.176 26.432 170.176C29.5467 170.176 32.384 170.624 34.944 171.52C37.504 172.373 39.68 173.632 41.472 175.296L38.336 183.168C36.3733 181.632 34.496 180.544 32.704 179.904C30.9547 179.264 28.9707 178.944 26.752 178.944C22.528 178.944 19.2853 180.203 17.024 182.72C14.8053 185.195 13.696 188.757 13.696 193.408C13.696 198.059 14.8053 201.643 17.024 204.16C19.2853 206.677 22.528 207.936 26.752 207.936C28.9707 207.936 30.9547 207.616 32.704 206.976C34.496 206.336 36.3733 205.248 38.336 203.712L41.472 211.584C39.68 213.205 37.504 214.464 34.944 215.36C32.384 216.256 29.5467 216.704 26.432 216.704ZM47.7165 216V192.128C47.7165 190.72 47.6738 189.291 47.5885 187.84C47.5458 186.389 47.4392 184.96 47.2685 183.552H56.5485L57.6365 193.024H56.1645C56.5912 190.72 57.2738 188.821 58.2125 187.328C59.1938 185.835 60.3885 184.725 61.7965 184C63.2472 183.275 64.8898 182.912 66.7245 182.912C67.5352 182.912 68.1752 182.955 68.6445 183.04C69.1138 183.083 69.5832 183.189 70.0525 183.36L69.9885 191.872C69.0925 191.488 68.3245 191.253 67.6845 191.168C67.0872 191.04 66.3192 190.976 65.3805 190.976C63.5885 190.976 62.0952 191.317 60.9005 192C59.7485 192.683 58.8738 193.685 58.2765 195.008C57.7218 196.331 57.4445 197.931 57.4445 199.808V216H47.7165ZM75.7105 230.528L73.4705 222.976C75.4758 222.592 77.1612 222.144 78.5265 221.632C79.9345 221.12 81.0865 220.437 81.9825 219.584C82.8785 218.773 83.6038 217.707 84.1585 216.384L85.7585 212.608L85.5025 216.32L71.4225 183.552H81.5985L90.8785 207.04H88.8945L98.3025 183.552H107.903L93.2465 217.28C92.1798 219.712 91.0278 221.717 89.7905 223.296C88.5958 224.917 87.2945 226.197 85.8865 227.136C84.4785 228.075 82.9212 228.8 81.2145 229.312C79.5505 229.824 77.7158 230.229 75.7105 230.528ZM111.218 229.824V192C111.218 190.635 111.175 189.248 111.09 187.84C111.005 186.389 110.877 184.96 110.706 183.552H119.986L120.754 189.888H120.05C120.69 187.755 122.034 186.069 124.082 184.832C126.13 183.552 128.477 182.912 131.122 182.912C133.938 182.912 136.413 183.595 138.546 184.96C140.679 186.283 142.343 188.203 143.538 190.72C144.775 193.237 145.394 196.245 145.394 199.744C145.394 203.285 144.775 206.315 143.538 208.832C142.343 211.349 140.679 213.291 138.546 214.656C136.413 216.021 133.938 216.704 131.122 216.704C128.519 216.704 126.194 216.085 124.146 214.848C122.141 213.611 120.797 211.968 120.114 209.92H120.882V229.824H111.218ZM128.178 209.408C130.439 209.408 132.253 208.619 133.618 207.04C134.983 205.461 135.666 203.029 135.666 199.744C135.666 196.459 134.983 194.048 133.618 192.512C132.253 190.976 130.439 190.208 128.178 190.208C125.959 190.208 124.146 190.976 122.738 192.512C121.373 194.048 120.69 196.459 120.69 199.744C120.69 203.029 121.373 205.461 122.738 207.04C124.146 208.619 125.959 209.408 128.178 209.408ZM166.511 216.704C162.287 216.704 159.108 215.659 156.975 213.568C154.842 211.435 153.775 208.256 153.775 204.032V190.784H147.631V183.552H153.775V175.616L163.439 173.248V183.552H171.759V190.784H163.439V203.52C163.439 205.568 163.866 206.976 164.719 207.744C165.572 208.512 166.66 208.896 167.983 208.896C168.794 208.896 169.455 208.853 169.967 208.768C170.522 208.64 171.098 208.469 171.695 208.256V215.744C170.884 216.085 170.031 216.32 169.135 216.448C168.239 216.619 167.364 216.704 166.511 216.704ZM191.766 216.704C188.31 216.704 185.302 216.021 182.742 214.656C180.224 213.248 178.262 211.285 176.854 208.768C175.488 206.251 174.806 203.243 174.806 199.744C174.806 196.288 175.488 193.301 176.854 190.784C178.262 188.267 180.224 186.325 182.742 184.96C185.302 183.595 188.31 182.912 191.766 182.912C195.222 182.912 198.23 183.595 200.79 184.96C203.35 186.325 205.312 188.267 206.678 190.784C208.086 193.301 208.79 196.288 208.79 199.744C208.79 203.243 208.086 206.251 206.678 208.768C205.312 211.285 203.35 213.248 200.79 214.656C198.23 216.021 195.222 216.704 191.766 216.704ZM191.766 209.408C193.984 209.408 195.734 208.619 197.014 207.04C198.336 205.461 198.998 203.029 198.998 199.744C198.998 196.459 198.336 194.048 197.014 192.512C195.734 190.976 193.984 190.208 191.766 190.208C189.547 190.208 187.776 190.976 186.454 192.512C185.174 194.048 184.534 196.459 184.534 199.744C184.534 203.029 185.174 205.461 186.454 207.04C187.776 208.619 189.547 209.408 191.766 209.408ZM228.421 216L249.157 170.88H257.413L278.405 216H268.293L262.853 203.456L266.757 206.208H239.941L243.909 203.456L238.469 216H228.421ZM253.253 181.376L244.997 200.96L243.269 198.528H263.429L261.957 200.96L253.509 181.376H253.253ZM281.656 216V183.552H291.32V216H281.656ZM281.272 178.24V169.216H291.64V178.24H281.272ZM299.154 216V192.128C299.154 190.72 299.111 189.291 299.026 187.84C298.983 186.389 298.877 184.96 298.706 183.552H307.986L309.074 193.024H307.602C308.029 190.72 308.711 188.821 309.65 187.328C310.631 185.835 311.826 184.725 313.234 184C314.685 183.275 316.327 182.912 318.162 182.912C318.973 182.912 319.613 182.955 320.082 183.04C320.551 183.083 321.021 183.189 321.49 183.36L321.426 191.872C320.53 191.488 319.762 191.253 319.122 191.168C318.525 191.04 317.757 190.976 316.818 190.976C315.026 190.976 313.533 191.317 312.338 192C311.186 192.683 310.311 193.685 309.714 195.008C309.159 196.331 308.882 197.931 308.882 199.808V216H299.154ZM337.704 216.704C334.888 216.704 332.392 216.021 330.216 214.656C328.083 213.291 326.397 211.349 325.16 208.832C323.965 206.315 323.368 203.285 323.368 199.744C323.368 196.245 323.965 193.237 325.16 190.72C326.355 188.203 328.04 186.283 330.216 184.96C332.392 183.595 334.888 182.912 337.704 182.912C340.264 182.912 342.547 183.531 344.552 184.768C346.6 185.963 347.965 187.584 348.648 189.632H347.816V168.896H357.48V216H347.944V209.664H348.776C348.093 211.797 346.728 213.504 344.68 214.784C342.632 216.064 340.307 216.704 337.704 216.704ZM340.584 209.408C342.803 209.408 344.595 208.619 345.96 207.04C347.325 205.461 348.008 203.029 348.008 199.744C348.008 196.459 347.325 194.048 345.96 192.512C344.595 190.976 342.803 190.208 340.584 190.208C338.365 190.208 336.552 190.976 335.144 192.512C333.779 194.048 333.096 196.459 333.096 199.744C333.096 203.029 333.779 205.461 335.144 207.04C336.552 208.619 338.365 209.408 340.584 209.408ZM365.342 216V192.128C365.342 190.72 365.299 189.291 365.214 187.84C365.171 186.389 365.064 184.96 364.894 183.552H374.174L375.262 193.024H373.79C374.216 190.72 374.899 188.821 375.838 187.328C376.819 185.835 378.014 184.725 379.422 184C380.872 183.275 382.515 182.912 384.35 182.912C385.16 182.912 385.8 182.955 386.27 183.04C386.739 183.083 387.208 183.189 387.678 183.36L387.614 191.872C386.718 191.488 385.95 191.253 385.31 191.168C384.712 191.04 383.944 190.976 383.006 190.976C381.214 190.976 379.72 191.317 378.526 192C377.374 192.683 376.499 193.685 375.902 195.008C375.347 196.331 375.07 197.931 375.07 199.808V216H365.342ZM406.516 216.704C403.06 216.704 400.052 216.021 397.492 214.656C394.974 213.248 393.012 211.285 391.604 208.768C390.238 206.251 389.556 203.243 389.556 199.744C389.556 196.288 390.238 193.301 391.604 190.784C393.012 188.267 394.974 186.325 397.492 184.96C400.052 183.595 403.06 182.912 406.516 182.912C409.972 182.912 412.98 183.595 415.54 184.96C418.1 186.325 420.062 188.267 421.428 190.784C422.836 193.301 423.54 196.288 423.54 199.744C423.54 203.243 422.836 206.251 421.428 208.768C420.062 211.285 418.1 213.248 415.54 214.656C412.98 216.021 409.972 216.704 406.516 216.704ZM406.516 209.408C408.734 209.408 410.484 208.619 411.764 207.04C413.086 205.461 413.748 203.029 413.748 199.744C413.748 196.459 413.086 194.048 411.764 192.512C410.484 190.976 408.734 190.208 406.516 190.208C404.297 190.208 402.526 190.976 401.204 192.512C399.924 194.048 399.284 196.459 399.284 199.744C399.284 203.029 399.924 205.461 401.204 207.04C402.526 208.619 404.297 209.408 406.516 209.408ZM429.781 229.824V192C429.781 190.635 429.738 189.248 429.653 187.84C429.567 186.389 429.439 184.96 429.269 183.552H438.549L439.317 189.888H438.613C439.253 187.755 440.597 186.069 442.645 184.832C444.693 183.552 447.039 182.912 449.685 182.912C452.501 182.912 454.975 183.595 457.109 184.96C459.242 186.283 460.906 188.203 462.101 190.72C463.338 193.237 463.957 196.245 463.957 199.744C463.957 203.285 463.338 206.315 462.101 208.832C460.906 211.349 459.242 213.291 457.109 214.656C454.975 216.021 452.501 216.704 449.685 216.704C447.082 216.704 444.757 216.085 442.708 214.848C440.703 213.611 439.359 211.968 438.677 209.92H439.445V229.824H429.781ZM446.741 209.408C449.002 209.408 450.815 208.619 452.181 207.04C453.546 205.461 454.229 203.029 454.229 199.744C454.229 196.459 453.546 194.048 452.181 192.512C450.815 190.976 449.002 190.208 446.741 190.208C444.522 190.208 442.709 190.976 441.301 192.512C439.935 194.048 439.253 196.459 439.253 199.744C439.253 203.029 439.935 205.461 441.301 207.04C442.709 208.619 444.522 209.408 446.741 209.408ZM482.186 216.704C479.285 216.704 476.639 216.384 474.25 215.744C471.861 215.104 469.834 214.208 468.17 213.056L470.666 206.656C472.33 207.68 474.165 208.491 476.17 209.088C478.218 209.685 480.245 209.984 482.25 209.984C484.127 209.984 485.514 209.685 486.41 209.088C487.306 208.491 487.754 207.68 487.754 206.656C487.754 205.803 487.455 205.141 486.858 204.672C486.303 204.203 485.429 203.861 484.234 203.648L477.642 202.432C474.869 201.877 472.757 200.853 471.306 199.36C469.855 197.867 469.13 195.925 469.13 193.536C469.13 191.445 469.685 189.611 470.794 188.032C471.946 186.411 473.589 185.152 475.722 184.256C477.855 183.36 480.351 182.912 483.21 182.912C485.642 182.912 487.946 183.211 490.122 183.808C492.298 184.405 494.154 185.323 495.69 186.56L493.066 192.768C491.743 191.787 490.207 190.997 488.458 190.4C486.751 189.803 485.109 189.504 483.53 189.504C481.482 189.504 480.01 189.845 479.114 190.528C478.218 191.168 477.77 192 477.77 193.024C477.77 193.792 478.026 194.432 478.538 194.944C479.093 195.456 479.925 195.84 481.034 196.096L487.69 197.312C490.549 197.824 492.725 198.784 494.218 200.192C495.711 201.6 496.458 203.541 496.458 206.016C496.458 208.277 495.861 210.197 494.666 211.776C493.471 213.355 491.786 214.571 489.61 215.424C487.477 216.277 485.002 216.704 482.186 216.704Z" fill="#484DFE"/>
</svg>
