<?xml version="1.0" encoding="UTF-8"?>
<svg id="Layer_1" data-name="Layer 1" xmlns="http://www.w3.org/2000/svg" viewBox="0 0 2244.23 187.37">
    <defs>
        <style>
            .cls-1 {
                fill: none;
                stroke: #B88FD6;
                stroke-miterlimit: 10;
                stroke-width: 12;
            }
        </style>
    </defs>
    <polyline class="cls-1" points="1870 110.01 2112.12 110.01 2132.5 89.01 2149.5 143.01 2177.5 3.01 2202.5 185.01 2227.5 101.01 2244 109.51"/>
    <polyline class="cls-1" points="1496 110.01 1738.12 110.01 1758.5 89.01 1775.5 143.01 1803.5 3.01 1828.5 185.01 1853.5 101.01 1870 109.51"/>
    <polyline class="cls-1" points="1122 110.01 1364.12 110.01 1384.5 89.01 1401.5 143.01 1429.5 3.01 1454.5 185.01 1479.5 101.01 1496 109.51"/>
    <polyline class="cls-1" points="748 110.01 990.12 110.01 1010.5 89.01 1027.5 143.01 1055.5 3.01 1080.5 185.01 1105.5 101.01 1122 109.51"/>
    <polyline class="cls-1" points="374 110.01 616.12 110.01 636.5 89.01 653.5 143.01 681.5 3.01 706.5 185.01 731.5 101.01 748 109.51"/>
    <polyline class="cls-1" points="0 110.01 242.12 110.01 262.5 89.01 279.5 143.01 307.5 3.01 332.5 185.01 357.5 101.01 374 109.51"/>
</svg> 