<?xml version="1.0" encoding="utf-8"?>
<!-- Generator: Adobe Illustrator 24.0.3, SVG Export Plug-In . SVG Version: 6.00 Build 0)  -->
<svg version="1.1" id="Layer_1" xmlns="http://www.w3.org/2000/svg" xmlns:xlink="http://www.w3.org/1999/xlink" x="0px" y="0px"
	 viewBox="0 0 216 108" style="enable-background:new 0 0 216 108;" xml:space="preserve">
<style type="text/css">
	.st0{fill:#5E6161;}
</style>
<g>
	<polygon class="st0" points="56,84.9 52.1,84.9 52.1,81.1 50.8,81.1 50.8,89.9 52.1,89.9 52.1,86.2 56,86.2 56,89.9 57.3,89.9 
		57.3,81.1 56,81.1 	"/>
	<polygon class="st0" points="59.8,89.9 64.3,89.9 64.3,88.6 61,88.6 61,86.2 64.3,86.2 64.3,84.9 61,84.9 61,82.4 64.3,82.4 
		64.3,81.1 59.8,81.1 	"/>
	<path class="st0" d="M70.1,87.3H68l1.1-3.7L70.1,87.3z M68.6,81.1l-2.7,8.7h1.3l0.4-1.3h2.9l0.4,1.3h1.3l-2.7-8.7H68.6z"/>
	<path class="st0" d="M76.4,88.6h-1.2v-6.1h1.2c0.4,0,0.8,0.1,1.2,0.3c0.3,0.2,0.6,0.4,0.9,0.7c0.2,0.3,0.4,0.6,0.5,1
		c0.1,0.4,0.2,0.7,0.2,1.1c0,0.4-0.1,0.8-0.2,1.1c-0.1,0.4-0.3,0.7-0.5,1c-0.2,0.3-0.5,0.5-0.9,0.7C77.2,88.5,76.8,88.6,76.4,88.6
		 M79.4,82.5c-0.3-0.4-0.8-0.7-1.3-1c-0.5-0.2-1.1-0.4-1.7-0.4h-2.5v8.7h2.5c0.6,0,1.2-0.1,1.7-0.4c0.5-0.2,0.9-0.6,1.3-1
		c0.3-0.4,0.6-0.9,0.8-1.4c0.2-0.5,0.3-1.1,0.3-1.6c0-0.5-0.1-1.1-0.3-1.6C80,83.4,79.7,82.9,79.4,82.5"/>
	<path class="st0" d="M86.7,85.5c-0.3-0.2-0.5-0.4-0.8-0.5c-0.3-0.1-0.6-0.2-0.9-0.4c-0.2-0.1-0.3-0.1-0.5-0.2
		c-0.2-0.1-0.3-0.2-0.4-0.3c-0.1-0.1-0.2-0.2-0.3-0.3c-0.1-0.1-0.1-0.3-0.1-0.5c0-0.3,0.1-0.6,0.3-0.8c0.2-0.2,0.5-0.3,0.9-0.3
		c0.4,0,0.7,0.1,0.9,0.4c0.2,0.3,0.3,0.6,0.3,1.1l0,0.2h1.3v-0.2c0-0.4-0.1-0.8-0.2-1.1c-0.1-0.3-0.3-0.6-0.5-0.9
		c-0.2-0.2-0.5-0.4-0.8-0.6c-0.6-0.3-1.4-0.3-2,0c-0.3,0.1-0.6,0.3-0.8,0.5c-0.2,0.2-0.4,0.5-0.5,0.8c-0.1,0.3-0.2,0.6-0.2,1
		c0,0.4,0.1,0.8,0.2,1.1c0.1,0.3,0.3,0.6,0.6,0.8c0.2,0.2,0.5,0.4,0.8,0.5c0.3,0.1,0.6,0.3,1,0.4c0.2,0.1,0.3,0.1,0.5,0.2
		c0.2,0.1,0.3,0.1,0.4,0.3c0.1,0.1,0.2,0.2,0.3,0.4c0.1,0.1,0.1,0.3,0.1,0.6c0,0.4-0.1,0.7-0.4,0.9c-0.3,0.2-0.6,0.3-1,0.3
		c-0.5,0-0.9-0.2-1.1-0.5c-0.3-0.3-0.4-0.7-0.4-1.3v-0.2h-1.3V87c0,0.5,0.1,0.9,0.2,1.3c0.1,0.4,0.3,0.7,0.6,1
		c0.2,0.3,0.5,0.5,0.9,0.6c0.3,0.1,0.7,0.2,1.1,0.2c0.4,0,0.7-0.1,1-0.2c0.3-0.1,0.6-0.3,0.9-0.5c0.2-0.2,0.4-0.5,0.6-0.9
		c0.1-0.3,0.2-0.7,0.2-1.2c0-0.4-0.1-0.8-0.2-1.1C87.2,86,87,85.7,86.7,85.5"/>
	<polygon class="st0" points="88.7,82.4 90.7,82.4 90.7,89.9 92,89.9 92,82.4 93.9,82.4 93.9,81.1 88.7,81.1 	"/>
	<path class="st0" d="M98.5,87.3h-2.1l1.1-3.7L98.5,87.3z M97,81.1l-2.7,8.7h1.3l0.4-1.3h2.9l0.4,1.3h1.3l-2.7-8.7H97z"/>
	<path class="st0" d="M103.5,82.4h1.5c0.2,0,0.4,0,0.6,0.1c0.2,0.1,0.3,0.2,0.5,0.4c0.1,0.2,0.2,0.3,0.3,0.6
		c0.1,0.2,0.1,0.4,0.1,0.7c0,0.2,0,0.5-0.1,0.7c-0.1,0.2-0.2,0.4-0.3,0.5c-0.1,0.2-0.3,0.3-0.5,0.4c-0.2,0.1-0.4,0.1-0.6,0.1h-1.5
		V82.4z M106.7,86.5c0.2-0.2,0.4-0.4,0.6-0.7c0.2-0.2,0.3-0.5,0.4-0.8c0.1-0.3,0.1-0.6,0.1-0.9c0-0.4-0.1-0.8-0.2-1.2
		c-0.1-0.4-0.3-0.7-0.6-1c-0.2-0.3-0.5-0.5-0.9-0.7c-0.3-0.2-0.7-0.2-1.1-0.2h-2.8v8.7h1.3v-2.7h1.3l1.5,2.7h1.5l-1.6-2.9
		C106.4,86.8,106.6,86.7,106.7,86.5"/>
	<polygon class="st0" points="108.8,82.4 110.8,82.4 110.8,89.9 112.1,89.9 112.1,82.4 114,82.4 114,81.1 108.8,81.1 	"/>
	<polygon class="st0" points="115.8,89.9 120.3,89.9 120.3,88.6 117.1,88.6 117.1,86.2 120.3,86.2 120.3,84.9 117.1,84.9 
		117.1,82.4 120.3,82.4 120.3,81.1 115.8,81.1 	"/>
	<path class="st0" d="M124,82.4h1.5c0.2,0,0.4,0,0.6,0.1c0.2,0.1,0.3,0.2,0.5,0.4c0.1,0.2,0.2,0.3,0.3,0.6c0.1,0.2,0.1,0.4,0.1,0.7
		c0,0.2,0,0.5-0.1,0.7c-0.1,0.2-0.2,0.4-0.3,0.5c-0.1,0.2-0.3,0.3-0.5,0.4c-0.2,0.1-0.4,0.1-0.6,0.1H124V82.4z M127.3,86.5
		c0.2-0.2,0.4-0.4,0.6-0.7c0.2-0.2,0.3-0.5,0.4-0.8c0.1-0.3,0.1-0.6,0.1-0.9c0-0.4-0.1-0.8-0.2-1.2c-0.1-0.4-0.3-0.7-0.6-1
		c-0.2-0.3-0.5-0.5-0.9-0.7c-0.3-0.2-0.7-0.2-1.1-0.2h-2.8v8.7h1.3v-2.7h1.3l1.5,2.7h1.5l-1.6-2.9C126.9,86.8,127.1,86.7,127.3,86.5
		"/>
	<polygon class="st0" points="144.3,89.9 148.8,89.9 148.8,88.6 145.5,88.6 145.5,86.2 148.8,86.2 148.8,84.9 145.5,84.9 
		145.5,82.4 148.8,82.4 148.8,81.1 144.3,81.1 	"/>
	<polygon class="st0" points="150.5,82.4 152.5,82.4 152.5,89.9 153.7,89.9 153.7,82.4 155.7,82.4 155.7,81.1 150.5,81.1 	"/>
	<path class="st0" d="M172.8,88.8c-0.4,0-0.8-0.1-1.1-0.3c-0.3-0.2-0.6-0.4-0.9-0.7c-0.2-0.3-0.4-0.6-0.5-1
		c-0.1-0.4-0.2-0.8-0.2-1.2s0.1-0.8,0.2-1.2c0.1-0.4,0.3-0.7,0.5-1c0.2-0.3,0.5-0.5,0.9-0.7c0.3-0.2,0.7-0.3,1.1-0.3
		c0.4,0,0.8,0.1,1.1,0.3c0.3,0.2,0.6,0.4,0.9,0.7c0.2,0.3,0.4,0.7,0.5,1c0.1,0.4,0.2,0.8,0.2,1.2s-0.1,0.8-0.2,1.2
		c-0.1,0.4-0.3,0.7-0.5,1c-0.2,0.3-0.5,0.5-0.9,0.7C173.6,88.7,173.2,88.8,172.8,88.8 M175.7,82.3c-0.3-0.4-0.8-0.8-1.3-1
		c-0.5-0.3-1.1-0.4-1.7-0.4c-0.6,0-1.2,0.1-1.7,0.4c-0.5,0.2-0.9,0.6-1.3,1c-0.3,0.4-0.6,0.9-0.8,1.5c-0.2,0.5-0.3,1.1-0.3,1.7
		c0,0.6,0.1,1.2,0.3,1.7c0.2,0.5,0.5,1,0.8,1.5c0.3,0.4,0.8,0.8,1.3,1c0.5,0.3,1.1,0.4,1.7,0.4c0.6,0,1.2-0.1,1.7-0.4
		c0.5-0.3,0.9-0.6,1.3-1c0.3-0.4,0.6-0.9,0.8-1.5c0.2-0.5,0.3-1.1,0.3-1.7c0-0.6-0.1-1.2-0.3-1.7C176.4,83.2,176.1,82.8,175.7,82.3"
		/>
	<path class="st0" d="M180,82.4h1.5c0.2,0,0.4,0,0.6,0.1c0.2,0.1,0.3,0.2,0.5,0.4c0.1,0.2,0.2,0.3,0.3,0.6c0.1,0.2,0.1,0.4,0.1,0.7
		c0,0.2,0,0.5-0.1,0.7c-0.1,0.2-0.2,0.4-0.3,0.5c-0.1,0.2-0.3,0.3-0.5,0.4c-0.2,0.1-0.4,0.1-0.6,0.1H180V82.4z M183.2,86.5
		c0.2-0.2,0.4-0.4,0.6-0.7c0.2-0.2,0.3-0.5,0.4-0.8c0.1-0.3,0.1-0.6,0.1-0.9c0-0.4-0.1-0.8-0.2-1.2c-0.1-0.4-0.3-0.7-0.6-1
		c-0.2-0.3-0.5-0.5-0.9-0.7c-0.3-0.2-0.7-0.2-1.1-0.2h-2.8v8.7h1.3v-2.7h1.3l1.5,2.7h1.5l-1.6-2.9C182.8,86.8,183,86.7,183.2,86.5"
		/>
	<polygon class="st0" points="192.2,81.1 190.6,81.1 187.6,84.7 187.6,81.1 186.3,81.1 186.3,89.9 187.6,89.9 187.6,86.3 
		190.6,89.9 192.2,89.9 188.6,85.5 	"/>
	<polygon class="st0" points="140.7,87.2 136.9,81.1 135.7,81.1 135.7,89.9 137,89.9 137,83.8 140.8,89.9 142,89.9 142,81.1 
		140.7,81.1 	"/>
	<polygon class="st0" points="166.8,81.1 164.4,87.5 163.2,84.3 164.4,81.1 163,81.1 162.5,82.5 161.9,81.1 160.6,81.1 161.8,84.3 
		160.6,87.5 158.2,81.1 156.8,81.1 160.2,89.9 161.1,89.9 162.5,86.1 163.9,89.9 164.8,89.9 168.1,81.1 	"/>
	<polygon class="st0" points="35.9,84.9 31.9,84.9 31.9,81.2 30.7,81.2 30.7,89.8 31.9,89.8 31.9,86.1 35.9,86.1 35.9,89.8 
		37.1,89.8 37.1,81.2 35.9,81.2 	"/>
	<polygon class="st0" points="39.5,89.8 43.9,89.8 43.9,88.6 40.7,88.6 40.7,86.1 43.9,86.1 43.9,84.9 40.7,84.9 40.7,82.4 
		43.9,82.4 43.9,81.2 39.5,81.2 	"/>
	<polygon class="st0" points="23.8,82.4 25.8,82.4 25.8,89.8 27,89.8 27,82.4 29,82.4 29,81.2 23.8,81.2 	"/>
	<rect x="72.5" y="40.1" class="st0" width="34.4" height="20"/>
	<polygon class="st0" points="109.1,19.7 109.1,60.2 142.2,60.2 	"/>
	<polygon class="st0" points="143.5,58.4 143.5,18 110.4,18 	"/>
	<rect x="72.5" y="17.9" class="st0" width="34.4" height="20"/>
</g>
</svg>
