<?xml version="1.0" encoding="utf-8"?>
<!-- Generator: Adobe Illustrator 22.1.0, SVG Export Plug-In . SVG Version: 6.00 Build 0)  -->
<svg version="1.1" id="Layer_1" xmlns="http://www.w3.org/2000/svg" xmlns:xlink="http://www.w3.org/1999/xlink" x="0px" y="0px"
	 viewBox="0 0 558 108" style="enable-background:new 0 0 558 108;" xml:space="preserve">
<style type="text/css">
	.st0{fill:#FC6100;}
</style>
<path class="st0" d="M0.3,89l17.8-21.3C29,76,41.4,79.5,53.1,79.5c6,0,8.6-1.6,8.6-4.3v-0.3c0-2.9-3.1-4.4-13.8-6.6
	c-22.4-4.6-42.1-11-42.1-32.1v-0.3c0-19,14.8-33.7,42.4-33.7c19.3,0,33.5,4.6,45.1,13.7L76.9,38.5c-9.4-6.9-20.7-9.8-30-9.8
	c-5,0-7.3,1.7-7.3,4.1v0.3c0,2.7,2.7,4.4,13.3,6.4c25.6,4.7,42.7,12.1,42.7,32.3V72c0,21-17.3,33.8-44.1,33.8
	C31.2,105.9,13,100.2,0.3,89z M128.9,32.4H99.5V4.1h92.2v28.3h-29.4V104h-33.4V32.4z M274.6,70c12.1-5.9,19.7-16,19.7-30.5v-0.3
	c0-10.3-3.1-17.7-9.1-23.7c-7-7-18.3-11.4-36-11.4h-48.8V104h33.4V75.5h7.1l18.8,28.5h38.1L274.6,70z M261,41.9
	c0,6.1-4.9,9.7-12.8,9.7h-14.4V32.1h14.6c7.7,0,12.7,3.1,12.7,9.6V41.9z M345.4-0.1L291.5,104h35.8l18.1-36.4l18.1,36.4h35.8
	L345.4-0.1z M503.8-0.1L449.9,104h35.8l18.1-36.4l18.1,36.4h35.8L503.8-0.1z M424.6,108.1L478.6,4h-35.8l-18.1,36.4L406.5,4h-35.8
	L424.6,108.1z"/>
</svg>
