<?xml version="1.0" encoding="utf-8"?>
<!-- Generator: Adobe Illustrator 17.1.0, SVG Export Plug-In . SVG Version: 6.00 Build 0)  -->
<!DOCTYPE svg PUBLIC "-//W3C//DTD SVG 1.1//EN" "http://www.w3.org/Graphics/SVG/1.1/DTD/svg11.dtd">
<svg version="1.1" id="Layer_1_copy_4" xmlns="http://www.w3.org/2000/svg" xmlns:xlink="http://www.w3.org/1999/xlink" x="0px"
	 y="0px" viewBox="0 0 142.8 40.3" enable-background="new 0 0 142.8 40.3" xml:space="preserve">
<path fill="#FFFFFF" d="M14.4,15.3h3.7v-3H11l-2.8,8.9c-0.3,1-0.6,2.5-0.6,2.5h0c0,0-0.3-1.5-0.6-2.5l-2.8-8.9H0l5.6,15.7h4
	l4.9-13.8V15.3z M86.1,20.1c0-0.4,0.5-0.5,1.1-0.5c1.6,0,2.7,0.9,2.7,0.9l1.3-2.7c0,0-1.3-1.3-4-1.3c-2.4,0-4.4,1.1-4.6,3
	c-0.8-1.9-2.4-3-4.5-3c-2.4,0-3.4,1.6-3.4,1.6h0c0,0,0-0.4,0-0.7v-0.6h-3.4v1.3c-0.9-3.5-4-6-8-6c-3.8,0-6.7,2.2-7.8,5.4v-0.9
	c0,0-0.2,0-0.4,0c-1.7,0-3.1,1.3-3.6,2.8h0c0,0,0-0.3,0-0.7v-1.9h-3.6v5.7c0-3.5-2.9-5.9-6.4-5.9c-3.5,0-6.4,2.4-6.4,5.9
	c0,0.9,0.2,1.7,0.5,2.4c-0.1,0-0.2,0-0.4,0c-0.7,0-2-0.2-2-1.4v-3.5h2.4v-3H33v-3.2h-3.7V17h-1.6v0.6c-0.7-0.5-1.9-1.1-3.8-1.1
	c-3,0-5,1.6-5.9,3.6v-3.4h-3.8v11.3h3.8v-3.4c0.8,2.1,2.9,3.6,5.9,3.6c3.2,0,4.8-1.9,4.8-1.9l-1.4-2.7c0,0-1.5,1.4-3.1,1.4
	c-1.9,0-2.8-1.5-2.8-2.8c0-1.3,0.9-2.7,2.7-2.7c1.6,0,2.7,1.1,2.7,1.1l0.9-1.4v0.6h1.4v4c0,3.8,3.5,4.3,5.3,4.3c0.6,0,1-0.1,1-0.1
	V25c1,2,3.2,3.3,5.8,3.3c3.5,0,6.4-2.3,6.4-5.9v5.6h3.8v-4.3c0-0.6,0.1-1.1,0.2-1.5c0.5-1.7,2-2,2.9-2c0.1,0,0.3,0,0.4,0
	c0.1,4.5,3.5,8,8.2,8c4,0,7.1-2.6,8-6.1v10.3H75v-4.2c0-0.6,0-1,0-1h0c0,0,1,1.1,2.9,1.1c3,0,5.3-2.3,5.3-5.9c0-0.2,0-0.4,0-0.6
	c1.4,1.9,4.7,2.2,4.7,2.9c0,0.4-0.5,0.5-1.1,0.5c-1.6,0-2.9-1.1-2.9-1.1l-1.6,2.5c0,0,1.7,1.7,4.5,1.7c2.9,0,4.6-1.6,4.6-3.6
	C91.4,21.1,86.1,21,86.1,20.1z M41.4,25.2c-1.4,0-2.6-1-2.6-2.7c0-1.7,1.2-2.8,2.6-2.8c1.4,0,2.6,1.1,2.6,2.8
	C44,24.1,42.8,25.2,41.4,25.2z M63.3,24.8c-2.3,0-4.2-2-4.2-4.7c0-2.6,1.9-4.5,4.2-4.5c2.3,0,4.2,1.9,4.2,4.5
	C67.5,22.8,65.6,24.8,63.3,24.8z M77.1,25.2c-1.5,0-2.2-1.3-2.2-2.7c0-2,1.1-2.8,2.2-2.8c1.3,0,2.2,1.1,2.2,2.8
	C79.3,24.2,78.3,25.2,77.1,25.2z"/>
<path fill="#FFFFFF" d="M121.7,0c-11,0-20,9-20,20c0,11,9,20,20,20c11,0,20-9,20-20C141.7,9,132.7,0,121.7,0z M131.6,20.4l-6.1,2.9
	l-0.1,1l4.7-1.4l-2.3,2.8l-0.2,0.9l-2.9,1.2l-0.3,0.8l1.3-0.5l-3.4,3.8L122,35v2.9h-0.6v-2.8l-0.2-3.2l-3.4-3.8l1.3,0.5l-0.3-0.8
	l-2.9-1.2l-0.2-0.9l-2.3-2.8l4.7,1.4l-0.1-1l-6.1-2.9l1.4-2.2l-2.9-3.9l8,3.6l0.2-1.1l-2.3-3.6l0.3-0.6l-1.1-4.2l4.2,4.2l0.3-2.3
	l-1.3-3.4l1.7,0.5l1.5-4.2l1.5,4.2l1.7-0.5l-1.3,3.4l0.3,2.3l4.2-4.2l-1.1,4.2l0.3,0.6l-2.3,3.6l0.2,1.1l8-3.6l-2.9,3.9L131.6,20.4z
	"/>
</svg>
