<svg id="svg" xmlns="http://www.w3.org/2000/svg" width="100%" height="100%" viewBox="0 0 172.09 36.84">
                    <defs>
                    <style>
                        .cls-1 {
                        fill: none;
                        }
                        .cls-2 {
                        fill: black;
                        }
                        .cls-3 {
                        fill: white;
                        }
                    </style>
                    </defs>
                    <title>ATLAS Wordmark</title>
                    <line class="cls-1" x1="0" y1="36" x2="172.1" y2="36"/>   
                    <rect class="cls-1" width="41.57" height="36.84"/>
                    <rect class="cls-1" x="99.18" width="41.57" height="36.84"/>
                    <polygon class="cls-2" points="37.52 0.64 67.98 0.64 67.98 9.45 57.84 9.45 57.84 36 47.5 36 47.5 9.45 37.52 9.45 37.52 0.64"/>
                    <polygon class="cls-2" points="70.84 0.64 81.18 0.64 81.18 27.15 96.31 27.15 96.31 36 70.84 36 70.84 0.64"/>
                    <path class="cls-2" d="M140.54,24.73h10.58c.35,2.81,2.53,4.15,5.94,4.15,2,0,4.5-.79,4.5-2.92s-2.38-2.67-6.73-3.76c-5.93-1.48-13.1-3.51-13.1-11C141.73,3.07,148.35,0,156.32,0c7.31,0,14,3.07,14.19,10.78H160.27c-.29-1.93-1.68-3.16-4.5-3.16-2.27,0-3.86,1-3.86,2.47,0,2.08,3,2.37,8.31,3.66,5.94,1.43,11.87,3.76,11.87,11.27,0,7.72-6.87,11.82-15.23,11.82-9.2,0-16.17-4-16.32-12.11"/>    
                    <g class="cls-2" id="a-first" data-name="a-first"><path d="M36.41,36A5.15,5.15,0,0,1,32,33.52L20.78,15.1,14.36,25.67h6.31a5.17,5.17,0,0,1,0,10.33H5.17A5.16,5.16,0,0,1,.75,28.15L16.37,2.48a5.17,5.17,0,0,1,8.83,0L40.82,28.15A5.16,5.16,0,0,1,36.41,36"/><rect class="cls-1" width="41.57" height="36.84"/></g>    
                    <g class="cls-2" id="a-second" data-name="a-second" transform="translate(99.18 0)"><g><polygon points="31.18 18.01 20.79 36.01 41.57 36.01 31.18 18.01"/><polygon points="20.79 0.01 10.39 18.01 31.18 18.01 20.79 0.01"/><polygon points="0 36.01 20.78 36.01 10.39 18.01 0 36.01"/></g><rect class="cls-1" width="41.57" height="36.84"/></g>    
                </svg>