<svg width="54" height="66" viewBox="0 0 54 66" fill="none" xmlns="http://www.w3.org/2000/svg">
<path fill-rule="evenodd" clip-rule="evenodd" d="M45.3838 45.479L38.3808 38.5041C43.9422 34.7074 47.6023 28.3123 47.6023 21.0756C47.6023 9.45436 38.1665 0 26.5688 0H7.74848V2.21849H26.5688C36.9458 2.21849 45.3882 10.6776 45.3882 21.0756C45.3882 27.705 41.9531 33.5424 36.7758 36.9054L34.3548 34.4944C38.9622 31.7998 42.0672 26.7954 42.0672 21.0756C42.0672 12.5125 35.1145 5.54622 26.5688 5.54622H7.74848V7.76471H26.5688C33.8937 7.76471 39.8531 13.7358 39.8531 21.0756C39.8531 26.1915 36.956 30.6395 32.7214 32.8669L30.2112 30.3672C33.9114 28.9097 36.532 25.3005 36.532 21.0756C36.532 15.5619 32.0713 11.0924 26.5688 11.0924H7.71997L25.5395 28.8403H7.74848V31.0585H26.5688C26.9518 31.0585 27.329 31.035 27.7007 30.9928L30.5081 33.7889C29.2627 34.1772 27.9398 34.3863 26.5688 34.3863H7.74848V36.6048H26.5688C28.5728 36.6048 30.4871 36.2176 32.247 35.5205L34.7774 38.041C32.2952 39.2517 29.5101 39.9325 26.5688 39.9325H7.74848V42.151H26.5688C30.1298 42.151 33.4852 41.2567 36.4282 39.6849L42.2454 45.479H7.75041V47.6975H44.4733H47.5951H47.6006L47.6034 47.6947V47.6892L45.3838 45.479ZM26.5698 13.3109C30.8423 13.3115 34.3179 16.7945 34.3179 21.0756C34.3179 24.7087 31.8143 27.7658 28.4453 28.6088L13.0862 13.3109H26.5698ZM47.6274 60.0847H49.9654C50.5441 60.075 50.9783 59.9011 51.2675 59.5628C51.5523 59.2489 51.6946 58.8628 51.6946 58.4042C51.6855 57.8537 51.515 57.4552 51.1837 57.209C50.9222 56.9918 50.5441 56.8828 50.0495 56.8828H47.6274V60.0847ZM46.0858 55.468H50.0639C50.9122 55.468 51.6044 55.699 52.1402 56.1613C52.7853 56.6862 53.1215 57.435 53.1498 58.4078C53.131 59.8382 52.4756 60.811 51.1837 61.3262L53.54 66H51.7087L49.6015 61.499H47.6274V66H46.0858V55.468ZM39.349 62.23L37.8758 57.6224H37.8479L36.3744 62.23H39.349ZM39.7891 63.6442H35.9277L35.1456 66H33.5117L37.2125 55.468H38.5044L42.2049 66H40.5778L39.7891 63.6442ZM24.5699 64.4984H26.4156C27.2824 64.4984 27.9118 64.1917 28.3034 63.5788C28.4758 63.352 28.5854 63.0649 28.6319 62.7175C28.6739 62.3747 28.695 61.7327 28.695 60.7918C28.695 59.875 28.6739 59.2186 28.6319 58.8229C28.576 58.4269 28.4431 58.1061 28.2334 57.8601C27.8044 57.2472 27.1986 56.9505 26.4156 56.9696H24.5699V64.4984ZM23.0284 55.468H26.5908C27.969 55.4777 29.003 56.0698 29.6921 57.245C29.9387 57.6399 30.0945 58.0539 30.1596 58.4874C30.2108 58.9208 30.2362 59.6695 30.2362 60.7339C30.2362 61.8656 30.1967 62.6554 30.1175 63.1035C30.0802 63.3295 30.0242 63.5319 29.9498 63.71C29.8706 63.8833 29.7754 64.0641 29.6636 64.2518C29.3656 64.7477 28.951 65.1573 28.4204 65.4798C27.8943 65.8267 27.2492 66 26.4856 66H23.0284V55.468ZM16.2916 62.23L14.8184 57.6224H14.7904L13.3173 62.23H16.2916ZM16.7316 63.6442H12.8703L12.0885 66H10.4545L14.1553 55.468H15.4469L19.1474 66H17.5206L16.7316 63.6442ZM1.54126 60.0847H3.87958C4.45828 60.075 4.89223 59.9011 5.18172 59.5628C5.4665 59.2489 5.60875 58.8628 5.60875 58.4042C5.59934 57.8537 5.42886 57.4552 5.09758 57.209C4.83633 56.9918 4.45828 56.8828 3.96344 56.8828H1.54126V60.0847ZM0 55.468H3.97783C4.82609 55.468 5.51826 55.699 6.05433 56.1613C6.69918 56.6862 7.03571 57.435 7.06367 58.4078C7.04485 59.8382 6.38949 60.811 5.09758 61.3262L7.45389 66H5.62259L3.51537 61.499H1.54126V66H0V55.468Z" fill="#303030"/>
</svg>
