<svg xmlns="http://www.w3.org/2000/svg" viewBox="0 0 118.62 118.62"><defs><style>.cls-1{fill:#fff;}</style></defs><title>white</title><g id="Layer_2" data-name="Layer 2"><path class="cls-1" d="M95,92.13,61.65,13.91a2.27,2.27,0,0,0-4.22,0L23.67,93.1a.83.83,0,0,0-.05.41s0,.1,0,.16a2.22,2.22,0,0,0,2.91,2,.88.88,0,0,0,.61-.12L58.72,76a.94.94,0,0,1,1,0L92,95.38l.09.05.2.12a.81.81,0,0,0,.38.12,2.43,2.43,0,0,0,.61.09c1.24,0,1.64-1.29,1.64-2.45M54.61,74.37,36.93,85.28c-.83.51-1.8-.43-1.21-1.19L47.07,69.38a.94.94,0,0,1,1.21-.21L54.6,73A.82.82,0,0,1,54.61,74.37Zm5-3.12a1,1,0,0,1-1,0l-8.12-4.87a.81.81,0,0,1-.25-1.2L58.93,54a.93.93,0,0,1,1.45,0l8.23,10.65a.81.81,0,0,1-.23,1.19ZM82.72,85.68,63.77,74.31a.81.81,0,0,1,0-1.4l6.88-4.25a1,1,0,0,1,1.22.21L83.93,84.49C84.5,85.23,83.55,86.18,82.72,85.68Zm-3.5-21.11L84,75.79c.39.92-.94,1.6-1.56.81L75,67a.8.8,0,0,1,.23-1.19l2.63-1.63A.93.93,0,0,1,79.22,64.57ZM69.71,42.26l7.41,17.4a.8.8,0,0,1-.34,1L73,63a.93.93,0,0,1-1.22-.21L62.34,50.59a.8.8,0,0,1,0-1l5.81-7.52A.93.93,0,0,1,69.71,42.26ZM51.87,36.38l6.84-16a.92.92,0,0,1,1.66,0l6.91,16.22a.8.8,0,0,1-.11.8l-6.79,8.8a.93.93,0,0,1-1.45,0l-7-9A.8.8,0,0,1,51.87,36.38ZM41.7,60.25l7.75-18.18A.92.92,0,0,1,51,41.89l6,7.72a.81.81,0,0,1,0,1L47.1,63.36a.94.94,0,0,1-1.21.22l-3.84-2.31A.81.81,0,0,1,41.7,60.25ZM34.76,76.54l4.85-11.39a.93.93,0,0,1,1.32-.4l2.69,1.62a.81.81,0,0,1,.24,1.2l-7.55,9.77C35.69,78.14,34.36,77.46,34.76,76.54Z"/><path class="cls-1" d="M59.31,118.62a59.31,59.31,0,1,1,59.31-59.31A59.38,59.38,0,0,1,59.31,118.62Zm0-114.56a55.25,55.25,0,1,0,55.25,55.25A55.32,55.32,0,0,0,59.31,4.06Z"/></g></svg>