<svg xmlns="http://www.w3.org/2000/svg" viewBox="0 0 269.52 51.5"><defs><style>.cls-1{fill:#fff;}</style></defs><title>text_only</title><g id="Layer_2" data-name="Layer 2"><path class="cls-1" d="M7,8.82V22.1H21.35V24H7V38.5H4.66V6.93H23.58V8.82Z"/><path class="cls-1" d="M45.87,36.87a10,10,0,0,0,4.07-.8A8.76,8.76,0,0,0,53,33.88a9.7,9.7,0,0,0,1.9-3.32,12.47,12.47,0,0,0,.66-4.11V6.93h2.28V26.45A14.11,14.11,0,0,1,57,31.32a11.67,11.67,0,0,1-2.37,4,11.12,11.12,0,0,1-3.78,2.65,13.55,13.55,0,0,1-10,0,11.08,11.08,0,0,1-3.77-2.65,11.67,11.67,0,0,1-2.37-4,14.11,14.11,0,0,1-.83-4.87V6.93h2.3v19.5a12.47,12.47,0,0,0,.66,4.11,9.8,9.8,0,0,0,1.89,3.31,8.68,8.68,0,0,0,3,2.21A9.76,9.76,0,0,0,45.87,36.87Z"/><path class="cls-1" d="M88.46,36.55v2H71.21V6.93h2.3V36.55Z"/><path class="cls-1" d="M103.72,11.37v8.94h11.64v5.27H103.72V38.5H97V6.12h20.61v5.25Z"/><path class="cls-1" d="M152.51,38.5h-6A2.62,2.62,0,0,1,144,37.2l-6.16-9.93a2.49,2.49,0,0,0-.84-.84,2.66,2.66,0,0,0-1.34-.27h-2.28V38.5H126.7V6.12h10.17a20.85,20.85,0,0,1,5.8.71,11.06,11.06,0,0,1,4,1.95,7.32,7.32,0,0,1,2.25,3,9.78,9.78,0,0,1,.72,3.8,10.19,10.19,0,0,1-.46,3,9.12,9.12,0,0,1-1.33,2.62,9.45,9.45,0,0,1-2.14,2.09,11.15,11.15,0,0,1-2.9,1.48,6.27,6.27,0,0,1,1.2.86,5.62,5.62,0,0,1,1,1.19Zm-15.69-17a8.74,8.74,0,0,0,2.82-.41,5.51,5.51,0,0,0,1.94-1.14,4.44,4.44,0,0,0,1.11-1.71,6.12,6.12,0,0,0,.36-2.14,4.39,4.39,0,0,0-1.53-3.57,7.15,7.15,0,0,0-4.65-1.27h-3.48V21.45Z"/><path class="cls-1" d="M188.47,38.5h-5.2a2.23,2.23,0,0,1-1.41-.42A2.46,2.46,0,0,1,181,37l-2.18-6.18H166L163.77,37a2.46,2.46,0,0,1-.78,1,2.16,2.16,0,0,1-1.4.46h-5.24L169,6.12h6.84ZM177.23,26.2l-3.51-9.9c-.2-.52-.42-1.13-.65-1.83s-.45-1.46-.66-2.28c-.21.84-.43,1.6-.66,2.31s-.45,1.32-.66,1.84l-3.48,9.86Z"/><path class="cls-1" d="M231.62,6.12V38.5h-5.91V18.62c0-.42,0-.87,0-1.34s.06-1,.12-1.45L216.6,33.39a2.48,2.48,0,0,1-2.34,1.45h-.94a2.64,2.64,0,0,1-1.38-.37,2.67,2.67,0,0,1-1-1.08l-9.3-17.63c0,.52.08,1,.11,1.51s0,.93,0,1.35V38.5h-5.91V6.12H201c.28,0,.53,0,.76,0a1.77,1.77,0,0,1,.59.12,1.42,1.42,0,0,1,.47.31,2.42,2.42,0,0,1,.41.59l9.06,17.27c.28.52.54,1.06.79,1.61s.48,1.11.7,1.69c.23-.59.46-1.17.71-1.74a17.53,17.53,0,0,1,.79-1.63l9-17.2a2.18,2.18,0,0,1,.42-.59,1.57,1.57,0,0,1,.48-.31,1.76,1.76,0,0,1,.58-.12c.22,0,.47,0,.77,0Z"/><path class="cls-1" d="M249.58,11.37v8.32h10.8v5.06h-10.8v8.5h13.87V38.5H242.84V6.12h20.61v5.25Z"/></g></svg>