<svg id="Layer_1" data-name="Layer 1" xmlns="http://www.w3.org/2000/svg" viewBox="0 0 650.79 120.4"><defs><style>.cls-1{fill:#fff;}</style></defs><title>wide_white</title><path class="cls-1" d="M96.44,93.51,62.57,14.12a2.3,2.3,0,0,0-4.28,0L24,94.5a.81.81,0,0,0,0,.41.78.78,0,0,0,0,.16,2.21,2.21,0,0,0,2.27,2.13,2.62,2.62,0,0,0,.69-.11,1,1,0,0,0,.61-.13L59.6,77.16a1,1,0,0,1,1,0L93.33,96.81l.09,0,.2.12a.77.77,0,0,0,.38.12,2.19,2.19,0,0,0,.63.1c1.25,0,1.66-1.32,1.66-2.49M55.43,75.48,37.49,86.56c-.85.52-1.83-.44-1.24-1.21L47.78,70.42A1,1,0,0,1,49,70.2l6.42,3.85A.83.83,0,0,1,55.43,75.48Zm5.12-3.16a1,1,0,0,1-1,0l-8.25-4.95a.81.81,0,0,1-.24-1.21l8.74-11.33a.94.94,0,0,1,1.47,0l8.36,10.81a.82.82,0,0,1-.24,1.21ZM84,87,64.73,75.42a.82.82,0,0,1,0-1.42l7-4.31a.94.94,0,0,1,1.23.21L85.18,85.75C85.77,86.51,84.8,87.47,84,87ZM80.4,65.54l4.86,11.39c.39.93-1,1.62-1.58.81L76.15,68a.82.82,0,0,1,.23-1.21l2.68-1.65A.94.94,0,0,1,80.4,65.54ZM70.75,42.89l7.53,17.67a.82.82,0,0,1-.35,1L74.09,64a.94.94,0,0,1-1.23-.21l-9.59-12.4a.8.8,0,0,1,0-1l5.9-7.64A.94.94,0,0,1,70.75,42.89Zm-18.1-6,6.93-16.27a.93.93,0,0,1,1.69,0l7,16.45a.84.84,0,0,1-.11.82l-6.9,8.93a.94.94,0,0,1-1.47,0l-7.05-9.12A.8.8,0,0,1,52.65,36.93ZM42.32,61.16,50.19,42.7a.94.94,0,0,1,1.58-.18l6,7.83a.81.81,0,0,1,0,1l-10,13a1,1,0,0,1-1.23.22l-3.9-2.34A.82.82,0,0,1,42.32,61.16Zm-7,16.53L40.2,66.12a1,1,0,0,1,1.34-.4l2.73,1.64a.83.83,0,0,1,.25,1.22L36.86,78.5C36.23,79.31,34.88,78.62,35.28,77.69Z"/><path class="cls-1" d="M60.2,120.4a60.2,60.2,0,1,1,60.2-60.2A60.27,60.27,0,0,1,60.2,120.4Zm0-116.27A56.08,56.08,0,1,0,116.28,60.2,56.13,56.13,0,0,0,60.2,4.13Z"/><path class="cls-1" d="M168.37,34.48v25h27.07V63H168.37V90.29h-4.32V30.91h35.58v3.57Z"/><path class="cls-1" d="M241.55,87.22a18.7,18.7,0,0,0,7.66-1.49,16.46,16.46,0,0,0,5.73-4.13,18.18,18.18,0,0,0,3.58-6.23,23.44,23.44,0,0,0,1.24-7.74V30.91H264V67.63a26.71,26.71,0,0,1-1.55,9.17A22,22,0,0,1,258,84.22a20.71,20.71,0,0,1-7.09,5,25.34,25.34,0,0,1-18.76,0,20.61,20.61,0,0,1-7.09-5,22,22,0,0,1-4.47-7.42,26.71,26.71,0,0,1-1.55-9.17V30.91h4.32V67.59a23.48,23.48,0,0,0,1.24,7.74,18.16,18.16,0,0,0,3.57,6.23,16.33,16.33,0,0,0,5.7,4.15A18.54,18.54,0,0,0,241.55,87.22Z"/><path class="cls-1" d="M321.65,86.64v3.65H289.22V30.91h4.32V86.64Z"/><path class="cls-1" d="M350.35,39.26V56.09h21.91V66H350.35v24.3H337.68V29.4h38.77v9.86Z"/><path class="cls-1" d="M442.12,90.29H430.75a4.93,4.93,0,0,1-4.62-2.44L414.55,69.18A4.77,4.77,0,0,0,413,67.59a5.08,5.08,0,0,0-2.54-.51h-4.28V90.29H393.57V29.4h19.14a39.3,39.3,0,0,1,10.9,1.32A21,21,0,0,1,431,34.4a14,14,0,0,1,4.24,5.6,18.43,18.43,0,0,1,1.34,7.15,18.66,18.66,0,0,1-.86,5.73,16.83,16.83,0,0,1-2.49,4.93,18.18,18.18,0,0,1-4,3.94,20.91,20.91,0,0,1-5.46,2.77,12.36,12.36,0,0,1,2.27,1.62,11.26,11.26,0,0,1,1.89,2.24Zm-29.5-32.06a16,16,0,0,0,5.29-.78,9.83,9.83,0,0,0,3.65-2.14,8.37,8.37,0,0,0,2.1-3.21,11.87,11.87,0,0,0,.67-4,8.23,8.23,0,0,0-2.88-6.71c-1.91-1.59-4.83-2.39-8.74-2.39h-6.55V58.23Z"/><path class="cls-1" d="M509.76,90.29H500a4.27,4.27,0,0,1-2.66-.78,4.63,4.63,0,0,1-1.53-2l-4.12-11.63H467.42l-4.11,11.63a4.83,4.83,0,0,1-1.47,1.91,4,4,0,0,1-2.64.86h-9.86L473.13,29.4H486ZM488.61,67.17,482,48.54q-.58-1.47-1.23-3.45c-.44-1.31-.85-2.74-1.24-4.28-.39,1.57-.81,3-1.24,4.35s-.85,2.48-1.24,3.46l-6.54,18.55Z"/><path class="cls-1" d="M590.91,29.4V90.29H579.79V52.9q0-1.17.06-2.52c0-.89.12-1.8.23-2.73l-17.41,33a4.66,4.66,0,0,1-4.41,2.72H556.5a4.9,4.9,0,0,1-2.6-.69,4.84,4.84,0,0,1-1.8-2L534.6,47.53c.08,1,.15,1.92.21,2.83s.08,1.76.08,2.54V90.29H523.77V29.4h9.57c.53,0,1,0,1.43,0a3.63,3.63,0,0,1,1.11.24,2.59,2.59,0,0,1,.88.58,5,5,0,0,1,.78,1.11l17,32.48c.53,1,1,2,1.49,3s.9,2.1,1.32,3.19c.42-1.12.86-2.21,1.33-3.27s.95-2.08,1.48-3.06l16.92-32.36a4.4,4.4,0,0,1,.79-1.11,2.77,2.77,0,0,1,.9-.58,3.7,3.7,0,0,1,1.1-.24c.4,0,.88,0,1.44,0Z"/><path class="cls-1" d="M624.69,39.26V54.91H645v9.53H624.69v16h26.1v9.86H612V29.4h38.77v9.86Z"/></svg>