<svg xmlns="http://www.w3.org/2000/svg" viewBox="0 0 269.52 188.67"><defs><style>.cls-1,.cls-2{fill:#fff;}.cls-2{font-size:44.62px;font-family:Lato-Light, Lato;letter-spacing:0.1em;}.cls-3{font-family:Lato-Heavy, Lato;}</style></defs><title>Full_White</title><g id="Layer_2" data-name="Layer 2"><path class="cls-1" d="M166.44,92.13,133.07,13.91a2.27,2.27,0,0,0-4.22,0L95.1,93.1a.73.73,0,0,0,0,.41.78.78,0,0,0,0,.16,2.17,2.17,0,0,0,2.24,2.09,2.2,2.2,0,0,0,.68-.11.86.86,0,0,0,.6-.12L130.14,76a1,1,0,0,1,1,0l32.25,19.36.09.05.2.12a.89.89,0,0,0,.38.12,2.5,2.5,0,0,0,.61.09c1.24,0,1.64-1.29,1.64-2.45M126,74.37,108.36,85.28c-.83.51-1.8-.43-1.22-1.19L118.5,69.38a.92.92,0,0,1,1.2-.21L126,73A.81.81,0,0,1,126,74.37Zm5.05-3.12a.94.94,0,0,1-1,0L122,66.38a.81.81,0,0,1-.24-1.2L130.35,54a.93.93,0,0,1,1.45,0L140,64.67a.8.8,0,0,1-.24,1.19Zm23.06,14.43L135.2,74.31a.8.8,0,0,1,0-1.4l6.87-4.25a1,1,0,0,1,1.22.21l12.07,15.62C155.93,85.23,155,86.18,154.14,85.68Zm-3.5-21.11,4.78,11.22c.39.92-.93,1.6-1.55.81L146.45,67a.81.81,0,0,1,.23-1.19l2.64-1.63A.92.92,0,0,1,150.64,64.57Zm-9.51-22.31,7.42,17.4a.81.81,0,0,1-.34,1L144.42,63a.91.91,0,0,1-1.21-.21l-9.45-12.21a.83.83,0,0,1,0-1l5.81-7.52A.93.93,0,0,1,141.13,42.26ZM123.3,36.38l6.83-16a.92.92,0,0,1,1.66,0l6.91,16.22a.78.78,0,0,1-.1.8l-6.8,8.8a.93.93,0,0,1-1.45,0l-6.95-9A.77.77,0,0,1,123.3,36.38ZM113.12,60.25l7.75-18.18a.93.93,0,0,1,1.56-.18l6,7.72a.78.78,0,0,1,0,1l-9.86,12.77a.94.94,0,0,1-1.21.22l-3.85-2.31A.81.81,0,0,1,113.12,60.25Zm-6.94,16.29L111,65.15a.92.92,0,0,1,1.31-.4L115,66.37a.81.81,0,0,1,.24,1.2l-7.54,9.77C107.12,78.14,105.79,77.46,106.18,76.54Z"/><path class="cls-1" d="M130.74,118.62a59.31,59.31,0,1,1,59.31-59.31A59.38,59.38,0,0,1,130.74,118.62Zm0-114.56A55.25,55.25,0,1,0,186,59.31,55.31,55.31,0,0,0,130.74,4.06Z"/><text class="cls-2" transform="translate(0 175.67)">FUL<tspan class="cls-3" x="93.59" y="0">FRAME</tspan></text></g></svg>