<?xml version="1.0" encoding="utf-8"?>
<!-- Generator: Adobe Illustrator 19.2.1, SVG Export Plug-In . SVG Version: 6.00 Build 0)  -->
<svg version="1.1" xmlns="http://www.w3.org/2000/svg" xmlns:xlink="http://www.w3.org/1999/xlink" x="0px" y="0px"
	 viewBox="0 0 652 652" style="enable-background:new 0 0 652 652;" xml:space="preserve">
<style type="text/css">
	.st0{display:none;}
	.st1{display:inline;}
	.st2{fill:#0C0407;}
	.st3{fill:#F08300;}
</style>
<g class="st0">
	<g class="st1">
		<path class="st2" d="M240,670.9l1.6-0.1c0.1,0.6,0.3,1.2,0.5,1.6c0.3,0.4,0.7,0.7,1.3,1c0.6,0.3,1.2,0.4,2,0.4
			c0.7,0,1.2-0.1,1.7-0.3s0.9-0.5,1.1-0.8s0.4-0.7,0.4-1.1c0-0.4-0.1-0.8-0.4-1.1s-0.6-0.6-1.2-0.8c-0.3-0.1-1.1-0.3-2.3-0.6
			s-2-0.6-2.5-0.8c-0.6-0.3-1.1-0.7-1.4-1.2c-0.3-0.5-0.5-1-0.5-1.6c0-0.7,0.2-1.3,0.6-1.8s0.9-1,1.6-1.3s1.5-0.4,2.4-0.4
			c1,0,1.8,0.2,2.5,0.5c0.7,0.3,1.3,0.8,1.7,1.4s0.6,1.3,0.6,2l-1.6,0.1c-0.1-0.8-0.4-1.4-0.9-1.8c-0.5-0.4-1.3-0.6-2.2-0.6
			c-1,0-1.8,0.2-2.3,0.6c-0.5,0.4-0.7,0.8-0.7,1.4c0,0.5,0.2,0.8,0.5,1.1c0.3,0.3,1.2,0.6,2.6,0.9c1.4,0.3,2.3,0.6,2.9,0.8
			c0.8,0.3,1.3,0.8,1.7,1.3s0.5,1.1,0.5,1.8c0,0.7-0.2,1.3-0.6,1.9c-0.4,0.6-1,1.1-1.7,1.4c-0.7,0.3-1.6,0.5-2.5,0.5
			c-1.2,0-2.1-0.2-2.9-0.5c-0.8-0.3-1.4-0.9-1.9-1.5C240.3,672.6,240,671.8,240,670.9z"/>
		<path class="st2" d="M258.8,672.1l1.6,0.2c-0.3,1-0.7,1.7-1.4,2.2s-1.6,0.8-2.7,0.8c-1.4,0-2.4-0.4-3.2-1.3
			c-0.8-0.8-1.2-2-1.2-3.5c0-1.6,0.4-2.8,1.2-3.7s1.9-1.3,3.1-1.3c1.2,0,2.3,0.4,3.1,1.3s1.2,2,1.2,3.6c0,0.1,0,0.2,0,0.4h-7
			c0.1,1,0.3,1.8,0.9,2.4s1.2,0.8,2,0.8c0.6,0,1.1-0.2,1.5-0.5S258.6,672.7,258.8,672.1z M253.6,669.5h5.2c-0.1-0.8-0.3-1.4-0.6-1.8
			c-0.5-0.6-1.2-0.9-2-0.9c-0.7,0-1.3,0.2-1.8,0.7S253.6,668.7,253.6,669.5z"/>
		<path class="st2" d="M268.8,672.1l1.6,0.2c-0.3,1-0.7,1.7-1.4,2.2s-1.6,0.8-2.7,0.8c-1.4,0-2.4-0.4-3.2-1.3
			c-0.8-0.8-1.2-2-1.2-3.5c0-1.6,0.4-2.8,1.2-3.7s1.9-1.3,3.1-1.3c1.2,0,2.3,0.4,3.1,1.3s1.2,2,1.2,3.6c0,0.1,0,0.2,0,0.4h-7
			c0.1,1,0.3,1.8,0.9,2.4s1.2,0.8,2,0.8c0.6,0,1.1-0.2,1.5-0.5S268.6,672.7,268.8,672.1z M263.6,669.5h5.2c-0.1-0.8-0.3-1.4-0.6-1.8
			c-0.5-0.6-1.2-0.9-2-0.9c-0.7,0-1.3,0.2-1.8,0.7S263.7,668.7,263.6,669.5z"/>
		<path class="st2" d="M272.4,675.1v-12.9h1.6v7.3l3.7-3.8h2l-3.6,3.5l3.9,5.9h-2l-3.1-4.8l-1.1,1.1v3.7H272.4z"/>
		<path class="st2" d="M285.3,675.1l-5-12.9h1.8l3.3,9.4c0.3,0.8,0.5,1.5,0.7,2.1c0.2-0.7,0.4-1.4,0.7-2.1l3.5-9.4h1.7l-5,12.9
			H285.3z"/>
		<path class="st2" d="M298.8,672.1l1.6,0.2c-0.3,1-0.7,1.7-1.4,2.2s-1.6,0.8-2.7,0.8c-1.4,0-2.4-0.4-3.2-1.3
			c-0.8-0.8-1.2-2-1.2-3.5c0-1.6,0.4-2.8,1.2-3.7s1.9-1.3,3.1-1.3c1.2,0,2.3,0.4,3.1,1.3s1.2,2,1.2,3.6c0,0.1,0,0.2,0,0.4h-7
			c0.1,1,0.3,1.8,0.9,2.4s1.2,0.8,2,0.8c0.6,0,1.1-0.2,1.5-0.5S298.6,672.7,298.8,672.1z M293.6,669.5h5.2c-0.1-0.8-0.3-1.4-0.6-1.8
			c-0.5-0.6-1.2-0.9-2-0.9c-0.7,0-1.3,0.2-1.8,0.7S293.7,668.7,293.6,669.5z"/>
		<path class="st2" d="M308.5,671.7l1.6,0.2c-0.2,1.1-0.6,1.9-1.3,2.5c-0.7,0.6-1.6,0.9-2.6,0.9c-1.3,0-2.3-0.4-3.1-1.3
			c-0.8-0.8-1.2-2-1.2-3.6c0-1,0.2-1.9,0.5-2.6s0.8-1.3,1.5-1.7c0.7-0.4,1.4-0.6,2.2-0.6c1,0,1.8,0.3,2.5,0.8s1.1,1.2,1.2,2.2
			l-1.5,0.2c-0.1-0.6-0.4-1.1-0.8-1.4s-0.8-0.5-1.3-0.5c-0.8,0-1.4,0.3-1.9,0.9c-0.5,0.6-0.7,1.5-0.7,2.7c0,1.3,0.2,2.2,0.7,2.7
			s1.1,0.9,1.9,0.9c0.6,0,1.1-0.2,1.6-0.6S308.4,672.4,308.5,671.7z"/>
		<path class="st2" d="M314.9,673.7l0.2,1.4c-0.4,0.1-0.8,0.1-1.2,0.1c-0.6,0-1-0.1-1.3-0.3s-0.5-0.4-0.7-0.7s-0.2-0.9-0.2-1.9V667
			h-1.2v-1.2h1.2v-2.3l1.6-0.9v3.3h1.6v1.2h-1.6v5.5c0,0.5,0,0.7,0.1,0.9s0.1,0.2,0.3,0.3c0.1,0.1,0.3,0.1,0.5,0.1
			C314.4,673.7,314.6,673.7,314.9,673.7z"/>
		<path class="st2" d="M315.9,670.4c0-1.7,0.5-3,1.4-3.8c0.8-0.7,1.8-1,2.9-1c1.3,0,2.3,0.4,3.1,1.3s1.2,2,1.2,3.5
			c0,1.2-0.2,2.1-0.5,2.8c-0.4,0.7-0.9,1.2-1.6,1.6s-1.4,0.6-2.3,0.6c-1.3,0-2.4-0.4-3.2-1.3C316.3,673.2,315.9,672,315.9,670.4z
			 M317.5,670.4c0,1.2,0.3,2.1,0.8,2.7c0.5,0.6,1.2,0.9,2,0.9c0.8,0,1.4-0.3,2-0.9s0.8-1.5,0.8-2.7c0-1.2-0.3-2-0.8-2.6
			c-0.5-0.6-1.2-0.9-2-0.9c-0.8,0-1.4,0.3-2,0.9S317.5,669.2,317.5,670.4z"/>
		<path class="st2" d="M326.4,675.1v-9.3h1.4v1.4c0.4-0.7,0.7-1.1,1-1.3c0.3-0.2,0.6-0.3,1-0.3c0.5,0,1.1,0.2,1.6,0.5l-0.5,1.5
			c-0.4-0.2-0.8-0.3-1.2-0.3c-0.3,0-0.7,0.1-0.9,0.3s-0.5,0.5-0.6,0.9c-0.2,0.6-0.3,1.2-0.3,1.8v4.9H326.4z"/>
		<path class="st2" d="M332.6,675.1v-12.9h1.7v11.4h6.3v1.5H332.6z"/>
		<path class="st2" d="M341.9,670.4c0-1.7,0.5-3,1.4-3.8c0.8-0.7,1.8-1,2.9-1c1.3,0,2.3,0.4,3.1,1.3s1.2,2,1.2,3.5
			c0,1.2-0.2,2.1-0.5,2.8c-0.4,0.7-0.9,1.2-1.6,1.6s-1.4,0.6-2.3,0.6c-1.3,0-2.4-0.4-3.2-1.3C342.3,673.2,341.9,672,341.9,670.4z
			 M343.5,670.4c0,1.2,0.3,2.1,0.8,2.7c0.5,0.6,1.2,0.9,2,0.9c0.8,0,1.4-0.3,2-0.9s0.8-1.5,0.8-2.7c0-1.2-0.3-2-0.8-2.6
			c-0.5-0.6-1.2-0.9-2-0.9c-0.8,0-1.4,0.3-2,0.9S343.5,669.2,343.5,670.4z"/>
		<path class="st2" d="M352.2,675.8l1.5,0.2c0.1,0.5,0.2,0.8,0.5,1c0.4,0.3,0.9,0.4,1.6,0.4c0.7,0,1.3-0.1,1.7-0.4s0.7-0.7,0.8-1.2
			c0.1-0.3,0.1-1,0.1-2c-0.7,0.8-1.6,1.2-2.6,1.2c-1.3,0-2.3-0.5-3-1.4s-1.1-2-1.1-3.3c0-0.9,0.2-1.7,0.5-2.5
			c0.3-0.8,0.8-1.3,1.4-1.7s1.3-0.6,2.2-0.6c1.1,0,2,0.4,2.7,1.3v-1.1h1.5v8.1c0,1.5-0.1,2.5-0.4,3.1c-0.3,0.6-0.8,1.1-1.4,1.4
			c-0.6,0.4-1.4,0.5-2.4,0.5c-1.1,0-2-0.3-2.7-0.8C352.5,677.6,352.2,676.9,352.2,675.8z M353.5,670.2c0,1.2,0.2,2.1,0.7,2.7
			s1.1,0.8,1.8,0.8c0.7,0,1.3-0.3,1.8-0.8s0.7-1.4,0.7-2.6c0-1.1-0.3-2-0.8-2.6c-0.5-0.6-1.1-0.9-1.8-0.9c-0.7,0-1.3,0.3-1.8,0.9
			C353.7,668.3,353.5,669.1,353.5,670.2z"/>
		<path class="st2" d="M361.9,670.4c0-1.7,0.5-3,1.4-3.8c0.8-0.7,1.8-1,2.9-1c1.3,0,2.3,0.4,3.1,1.3s1.2,2,1.2,3.5
			c0,1.2-0.2,2.1-0.5,2.8c-0.4,0.7-0.9,1.2-1.6,1.6s-1.4,0.6-2.3,0.6c-1.3,0-2.4-0.4-3.2-1.3C362.3,673.2,361.9,672,361.9,670.4z
			 M363.5,670.4c0,1.2,0.3,2.1,0.8,2.7c0.5,0.6,1.2,0.9,2,0.9c0.8,0,1.4-0.3,2-0.9s0.8-1.5,0.8-2.7c0-1.2-0.3-2-0.8-2.6
			c-0.5-0.6-1.2-0.9-2-0.9c-0.8,0-1.4,0.3-2,0.9S363.5,669.2,363.5,670.4z"/>
		<path class="st2" d="M372.9,675.1v-1.8h1.8v1.8H372.9z"/>
		<path class="st2" d="M386.9,670.6l1.7,0.4c-0.4,1.4-1,2.5-1.9,3.2s-2.1,1.1-3.4,1.1c-1.4,0-2.5-0.3-3.4-0.8
			c-0.9-0.6-1.5-1.4-2-2.5c-0.5-1.1-0.7-2.2-0.7-3.5c0-1.3,0.3-2.5,0.8-3.5c0.5-1,1.2-1.8,2.2-2.3c0.9-0.5,2-0.8,3.1-0.8
			c1.3,0,2.4,0.3,3.3,1s1.5,1.6,1.8,2.8l-1.7,0.4c-0.3-0.9-0.7-1.6-1.3-2s-1.3-0.6-2.1-0.6c-1,0-1.8,0.2-2.5,0.7
			c-0.7,0.5-1.1,1.1-1.4,1.9c-0.3,0.8-0.4,1.6-0.4,2.5c0,1.1,0.2,2.1,0.5,2.9c0.3,0.8,0.8,1.4,1.5,1.8s1.4,0.6,2.2,0.6
			c1,0,1.8-0.3,2.4-0.8S386.7,671.6,386.9,670.6z"/>
		<path class="st2" d="M389.9,670.4c0-1.7,0.5-3,1.4-3.8c0.8-0.7,1.8-1,2.9-1c1.3,0,2.3,0.4,3.1,1.3s1.2,2,1.2,3.5
			c0,1.2-0.2,2.1-0.5,2.8c-0.4,0.7-0.9,1.2-1.6,1.6s-1.4,0.6-2.3,0.6c-1.3,0-2.4-0.4-3.2-1.3C390.3,673.2,389.9,672,389.9,670.4z
			 M391.5,670.4c0,1.2,0.3,2.1,0.8,2.7c0.5,0.6,1.2,0.9,2,0.9c0.8,0,1.4-0.3,2-0.9s0.8-1.5,0.8-2.7c0-1.2-0.3-2-0.8-2.6
			c-0.5-0.6-1.2-0.9-2-0.9c-0.8,0-1.4,0.3-2,0.9S391.5,669.2,391.5,670.4z"/>
		<path class="st2" d="M400.5,675.1v-9.3h1.4v1.3c0.3-0.5,0.7-0.8,1.2-1.1s1-0.4,1.7-0.4c0.7,0,1.3,0.1,1.7,0.4
			c0.4,0.3,0.8,0.7,0.9,1.2c0.7-1.1,1.7-1.6,2.9-1.6c0.9,0,1.6,0.3,2.1,0.8s0.7,1.3,0.7,2.4v6.4h-1.6v-5.9c0-0.6-0.1-1.1-0.2-1.4
			c-0.1-0.3-0.3-0.5-0.6-0.7s-0.6-0.3-0.9-0.3c-0.7,0-1.2,0.2-1.6,0.7c-0.4,0.4-0.7,1.1-0.7,2.1v5.4h-1.6V669c0-0.7-0.1-1.2-0.4-1.6
			s-0.7-0.5-1.3-0.5c-0.4,0-0.9,0.1-1.2,0.4c-0.4,0.2-0.7,0.6-0.8,1s-0.3,1.1-0.3,2v4.8H400.5z"/>
	</g>
</g>
<g>
	<polygon class="st3" points="23.3,232 159,232 159,264.6 92.2,332.5 158.4,332.5 158.4,375.4 14.7,375.4 14.7,343.8 82.8,274.6 
		23.3,274.6 	"/>
	<g>
		<path class="st3" d="M167.5,275.2c2.2-12.2,5.3-27.4,25.8-38.2c16.1-8.3,36.5-9.7,51.5-9.7c68.1,0,68.1,35.2,68.1,52.4v78.1
			c0,9.4,0.9,11.9,5,17.7h-56.2v-11.1c-7.2,5-20.5,14.4-47.4,14.4c-36,0-51.8-21.9-51.8-46.2c0-8.6,1.9-20.5,12.2-30.8
			c13-13.3,28.5-15.5,53.7-18.8c15.8-2.2,21.9-3.6,30.5-6.1c-0.3-9.7-3-16.3-19.4-16.3c-13,0-16.6,3.3-18.6,13.3L167.5,275.2z
			 M241.7,314.2c-4.7,1.1-9.7,2.2-14.7,3.9c-11.1,4.4-11.6,11.1-11.6,12.7c0,3.9,3.3,11.1,14.1,11.1c8,0,21.3-5.3,26.3-16.3
			c2.8-6.1,2.8-11.9,2.8-16.9C253,310.6,247.5,312.6,241.7,314.2"/>
		<path class="st3" d="M307.8,232h59.5l14.1,61.7c3,16.9,3.9,20.8,6.7,42.1c2.5-22.4,3.6-27.1,6.9-43.8l14.4-60.1h59.3l-52.3,151.7
			c-3.9,10.8-7.7,22.4-16.9,31.3c-12.2,11.9-22.1,12.2-39.9,12.2c-12.7,0-18.8-0.6-30.2-1.9v-40.7c4.7,0.3,10.8,0.8,16.1,0.8
			c7.8,0,12.2-1.7,12.2-6.9c0-2.5-3.3-11.4-4.4-14.7L307.8,232z"/>
		<path class="st3" d="M597.7,246.6c13.6,13,22.4,34.6,22.4,57.3c0,45.1-31.3,77-85.6,77c-57.9,0-81.7-37.7-81.7-76.2
			c0-47.1,31.8-79.2,84.7-78.9C566.7,226.2,586.6,236.1,597.7,246.6 M509.6,303.1c0,13.9,3.3,38,26.6,38c19.9,0,26.3-16.9,26.3-38.5
			c0-8.6-0.6-37.4-26.6-36.6C514.3,266.6,509.6,287.1,509.6,303.1"/>
		<path class="st3" d="M627.6,233.1c5.8,0,10.7,4.7,10.7,10.8c0,5.9-4.8,10.7-10.7,10.7c-5.9,0-10.7-4.8-10.7-10.7
			C616.9,237.9,621.8,233.1,627.6,233.1 M627.6,252.7c4.9,0,8.8-3.9,8.8-8.8c0-4.9-3.9-8.8-8.8-8.8c-4.7,0-8.8,3.9-8.8,8.8
			C618.9,248.7,622.8,252.7,627.6,252.7 M625.6,249.6h-2.4v-11.5h5.4c0.7,0,4.4,0,4.4,3.4c0,2.2-1.6,2.8-2.1,3.1l2.1,5h-2.6
			l-1.9-4.6h-2.8V249.6z M625.6,243.1h2.6c0.8,0,2.2-0.2,2.2-1.6c0-0.7-0.5-1.5-2-1.5h-2.8V243.1z"/>
	</g>
</g>
</svg>
