<?xml version="1.0" encoding="UTF-8" standalone="no"?>
<!-- Created with Inkscape (http://www.inkscape.org/) -->

<svg
   xmlns:dc="http://purl.org/dc/elements/1.1/"
   xmlns:cc="http://creativecommons.org/ns#"
   xmlns:rdf="http://www.w3.org/1999/02/22-rdf-syntax-ns#"
   xmlns:svg="http://www.w3.org/2000/svg"
   xmlns="http://www.w3.org/2000/svg"
   xmlns:sodipodi="http://sodipodi.sourceforge.net/DTD/sodipodi-0.dtd"
   xmlns:inkscape="http://www.inkscape.org/namespaces/inkscape"
   id="svg2"
   version="1.1"
   inkscape:version="0.91 r13725"
   xml:space="preserve"
   width="450"
   height="450"
   viewBox="0 0 450 450"
   sodipodi:docname="full.svg"><metadata
     id="metadata8"><rdf:RDF><cc:Work
         rdf:about=""><dc:format>image/svg+xml</dc:format><dc:type
           rdf:resource="http://purl.org/dc/dcmitype/StillImage" /><dc:title></dc:title></cc:Work></rdf:RDF></metadata><defs
     id="defs6"><clipPath
       clipPathUnits="userSpaceOnUse"
       id="clipPath16"><path
         d="M 0,360 360,360 360,0 0,0 0,360 Z"
         id="path18"
         inkscape:connector-curvature="0" /></clipPath></defs><sodipodi:namedview
     pagecolor="#ffffff"
     bordercolor="#666666"
     borderopacity="1"
     objecttolerance="10"
     gridtolerance="10"
     guidetolerance="10"
     inkscape:pageopacity="0"
     inkscape:pageshadow="2"
     inkscape:window-width="3066"
     inkscape:window-height="1787"
     id="namedview4"
     showgrid="false"
     inkscape:zoom="4.1955555"
     inkscape:cx="229.25997"
     inkscape:cy="317.1064"
     inkscape:window-x="0"
     inkscape:window-y="30"
     inkscape:window-maximized="0"
     inkscape:current-layer="g10" /><g
     id="g10"
     inkscape:groupmode="layer"
     inkscape:label="AI"
     transform="matrix(1.25,0,0,-1.25,0,450)"><g
       id="g4390"><path
         d="m 60.9541,186.2798 c 0,-17.765 -20.988,-28.041 -20.988,-28.041 0,0 -20.988,10.798 -20.988,28.041 0,13.179 9.396,23.862 20.988,23.862 11.592,0 20.988,-10.683 20.988,-23.862"
         style="fill:#4d8b34;fill-opacity:1;fill-rule:nonzero;stroke:none"
         id="path22"
         inkscape:connector-curvature="0" /><path
         d="m 54.563,174.3184 c 2.019,3.11 3.481,6.696 3.738,10.704 -1.92,-0.989 -4.347,-2.6 -7.196,-5.229 1.265,-1.626 2.441,-3.449 3.458,-5.475"
         style="fill:#ffffff;fill-opacity:1;fill-rule:nonzero;stroke:none"
         id="path26"
         inkscape:connector-curvature="0" /><path
         d="m 22.4561,192.7207 c -0.129,-0.466 -0.241,-0.941 -0.343,-1.42 17.776,-2.943 26.198,-18.453 28.058,-22.36 1.21,1.216 2.385,2.555 3.451,4.011 -9.384,16.78 -24.487,19.452 -31.166,19.769"
         style="fill:#ffffff;fill-opacity:1;fill-rule:nonzero;stroke:none"
         id="path30"
         inkscape:connector-curvature="0" /><path
         d="m 21.9023,190.1523 c -0.124,-0.774 -0.211,-1.562 -0.26,-2.362 18.695,-7.215 22.383,-22.443 22.676,-23.795 1.402,1.005 2.949,2.218 4.49,3.635 -8.597,16.867 -21.316,21.346 -26.906,22.522"
         style="fill:#ffffff;fill-opacity:1;fill-rule:nonzero;stroke:none"
         id="path34"
         inkscape:connector-curvature="0" /><path
         d="m 21.5913,186.2363 c 0.003,-1.23 0.128,-2.427 0.358,-3.587 10.373,-6.479 13.976,-15.401 15.145,-19.572 1.176,-0.807 2.183,-1.432 2.901,-1.857 0.691,0.392 1.647,0.963 2.761,1.701 -5.431,15.406 -16.271,21.349 -21.165,23.315"
         style="fill:#ffffff;fill-opacity:1;fill-rule:nonzero;stroke:none"
         id="path38"
         inkscape:connector-curvature="0" /><path
         d="m 22.6841,179.9531 c 2.234,-6.45 7.48,-11.608 11.815,-14.979 -2.531,7.274 -8.111,12.298 -11.815,14.979"
         style="fill:#ffffff;fill-opacity:1;fill-rule:nonzero;stroke:none"
         id="path42"
         inkscape:connector-curvature="0" /><path
         d="m 45.7236,185.3447 c 1.513,1.222 6.469,4.98 11.951,6.593 -0.214,0.893 -0.472,1.766 -0.781,2.608 -3.137,-0.659 -8.556,-2.356 -14.485,-6.71 1.066,-0.718 2.185,-1.546 3.315,-2.491"
         style="fill:#ffffff;fill-opacity:1;fill-rule:nonzero;stroke:none"
         id="path46"
         inkscape:connector-curvature="0" /><path
         d="m 49.9775,181.1675 c 1.055,1.186 3.825,3.917 8.349,5.781 -0.033,1.223 -0.151,2.423 -0.356,3.586 -2.797,-0.908 -6.59,-2.741 -10.816,-6.45 0.956,-0.884 1.905,-1.854 2.823,-2.917"
         style="fill:#ffffff;fill-opacity:1;fill-rule:nonzero;stroke:none"
         id="path50"
         inkscape:connector-curvature="0" /><path
         d="m 40.8359,188.8437 c 1.312,1.039 6.956,5.186 15.507,7.057 -0.263,0.593 -0.547,1.169 -0.854,1.729 -5.408,-0.783 -12.413,-2.617 -18.198,-6.865 0.974,-0.463 2.191,-1.096 3.545,-1.921"
         style="fill:#ffffff;fill-opacity:1;fill-rule:nonzero;stroke:none"
         id="path54"
         inkscape:connector-curvature="0" /><path
         d="m 40.481,224.2383 c 1.975,-0.132 2.436,-1.239 3.013,-2.814 0.576,-1.576 2.166,-2.869 2.38,-5.866 0.214,-2.997 -1.072,-8.838 -2.869,-8.799 -1.796,0.04 -6.672,-0.638 -8.336,1.375 -1.665,2.014 -1.472,5.909 -0.515,8.585 0.956,2.676 2.635,3.879 3.363,5.948 0.728,2.07 2.964,1.571 2.964,1.571"
         style="fill:#4d8b34;fill-opacity:1;fill-rule:nonzero;stroke:none"
         id="path58"
         inkscape:connector-curvature="0" /><path
         d="m 53.3955,202.9282 c 2.224,2.477 3.876,3.049 7.941,-1.652 4.064,-4.702 4.512,-6.354 7.942,-9.784 3.43,-3.43 3.684,-0.572 2.986,2.922 -0.699,3.494 -2.796,8.704 -6.099,12.326 -3.304,3.621 -6.607,6.48 -9.085,7.051 -2.477,0.572 -5.655,-1.143 -5.336,-3.24 0.318,-2.097 -2.416,-3.811 -2.416,-3.811 l 4.067,-3.812 z"
         style="fill:#4d8b34;fill-opacity:1;fill-rule:nonzero;stroke:none"
         id="path62"
         inkscape:connector-curvature="0" /><path
         d="m 54.4004,170.6484 c 0.953,-1.018 3.432,-2.923 4.702,-4.385 1.271,-1.461 1.461,-5.082 -0.318,-6.225 -1.779,-1.145 -5.464,-1.145 -5.527,1.334 -0.064,2.477 -3.939,4.764 -3.939,4.764 l 5.082,4.512 z"
         style="fill:#4d8b34;fill-opacity:1;fill-rule:nonzero;stroke:none"
         id="path66"
         inkscape:connector-curvature="0" /><path
         d="m 26.5308,202.9282 c -2.223,2.477 -3.875,3.049 -7.941,-1.652 -4.066,-4.702 -4.511,-6.354 -7.941,-9.784 -3.432,-3.43 -3.685,-0.572 -2.987,2.922 0.7,3.494 2.795,8.704 6.099,12.326 3.305,3.621 6.607,6.48 9.085,7.051 2.477,0.572 5.655,-1.143 5.336,-3.24 -0.317,-2.097 2.415,-3.811 2.415,-3.811 l -4.066,-3.812 z"
         style="fill:#4d8b34;fill-opacity:1;fill-rule:nonzero;stroke:none"
         id="path70"
         inkscape:connector-curvature="0" /><path
         d="m 25.5259,170.6484 c -0.953,-1.018 -3.432,-2.923 -4.702,-4.385 -1.271,-1.461 -1.461,-5.082 0.318,-6.225 1.779,-1.145 5.464,-1.145 5.528,1.334 0.063,2.477 3.938,4.764 3.938,4.764 l -5.082,4.512 z"
         style="fill:#4d8b34;fill-opacity:1;fill-rule:nonzero;stroke:none"
         id="path74"
         inkscape:connector-curvature="0" /></g><g
       id="g4406"><path
         d="m 84.1982,172.5596 0,1.365 c 0.579,0.096 1.038,0.224 1.376,0.382 0.337,0.158 0.589,0.383 0.754,0.673 0.165,0.289 0.269,0.658 0.311,1.105 0.041,0.449 0.062,1.004 0.062,1.665 l 0,20.622 -1.675,0 c -0.828,0 -1.462,-0.098 -1.903,-0.291 -0.442,-0.193 -0.824,-0.496 -1.148,-0.91 -0.324,-0.413 -0.604,-0.968 -0.838,-1.664 -0.234,-0.697 -0.427,-1.356 -0.579,-1.976 l -2.833,0 0,7.259 24.343,0 0,-7.259 -2.833,0 c -0.263,0.938 -0.47,1.627 -0.621,2.069 -0.152,0.44 -0.321,0.816 -0.507,1.127 -0.186,0.31 -0.382,0.568 -0.589,0.776 -0.207,0.206 -0.427,0.371 -0.662,0.496 -0.235,0.123 -0.528,0.217 -0.88,0.279 -0.35,0.062 -0.809,0.094 -1.374,0.094 l -1.489,0 0,-20.622 c 0,-0.73 0.02,-1.286 0.062,-1.665 0.041,-0.379 0.116,-0.686 0.227,-0.919 0.11,-0.235 0.244,-0.424 0.403,-0.569 0.158,-0.145 0.379,-0.276 0.663,-0.393 0.281,-0.118 0.665,-0.21 1.147,-0.279 l 0,-1.365 -11.417,0 z"
         style="fill:#4d8b34;fill-opacity:1;fill-rule:nonzero;stroke:none"
         id="path78"
         inkscape:connector-curvature="0" /><path
         d="m 107.0322,183.1279 c 0,-2.924 0.328,-5.112 0.982,-6.567 0.656,-1.454 1.645,-2.182 2.969,-2.182 0.73,0 1.341,0.186 1.83,0.559 0.49,0.372 0.882,0.91 1.179,1.613 0.296,0.702 0.506,1.548 0.631,2.533 0.124,0.986 0.186,2.092 0.186,3.32 0,2.964 -0.328,5.181 -0.982,6.649 -0.655,1.469 -1.624,2.203 -2.906,2.203 -0.938,0 -1.689,-0.297 -2.254,-0.889 -0.566,-0.593 -0.98,-1.483 -1.241,-2.669 -0.263,-1.186 -0.394,-2.709 -0.394,-4.57 m 3.641,-10.9 c -2.027,0 -3.775,0.355 -5.244,1.065 -1.468,0.711 -2.616,1.849 -3.443,3.412 -0.827,1.565 -1.241,3.555 -1.241,5.968 0,1.848 0.254,3.447 0.765,4.799 0.511,1.351 1.221,2.467 2.131,3.349 0.91,0.882 1.995,1.534 3.257,1.955 1.262,0.42 2.63,0.63 4.105,0.63 3.337,0 5.854,-0.878 7.549,-2.636 1.697,-1.759 2.544,-4.333 2.544,-7.725 0,-2.398 -0.42,-4.408 -1.261,-6.028 -0.842,-1.621 -2.041,-2.825 -3.599,-3.61 -1.558,-0.787 -3.412,-1.179 -5.563,-1.179"
         style="fill:#4d8b34;fill-opacity:1;fill-rule:nonzero;stroke:none"
         id="path82"
         inkscape:connector-curvature="0" /><path
         d="m 130.7744,190.1182 0.269,-0.062 c 1.006,1.186 2.041,2.041 3.103,2.565 1.06,0.524 2.212,0.785 3.453,0.785 0.841,0 1.723,-0.089 2.648,-0.268 l 0,-5.709 -3.744,0 c -0.235,0.8 -0.542,1.414 -0.92,1.841 -0.38,0.428 -0.887,0.641 -1.521,0.641 -0.304,0 -0.638,-0.093 -1.003,-0.279 -0.366,-0.186 -0.703,-0.448 -1.014,-0.786 -0.309,-0.338 -0.531,-0.682 -0.661,-1.034 -0.131,-0.352 -0.217,-0.707 -0.258,-1.066 -0.042,-0.358 -0.062,-0.896 -0.062,-1.613 l 0,-6.597 c 0,-1.31 0.047,-2.227 0.144,-2.751 0.097,-0.523 0.29,-0.934 0.579,-1.23 0.29,-0.297 0.779,-0.507 1.468,-0.63 l 0,-1.366 -10.195,0 0,1.366 c 0.661,0.178 1.119,0.413 1.375,0.703 0.255,0.288 0.427,0.681 0.517,1.177 0.09,0.498 0.135,1.4 0.135,2.71 l 0,8.5 c 0,1.021 -0.018,1.776 -0.052,2.265 -0.035,0.49 -0.117,0.882 -0.249,1.18 -0.131,0.296 -0.33,0.537 -0.599,0.723 -0.27,0.186 -0.735,0.348 -1.396,0.486 l 0,1.407 5.666,0.165 2.607,0 -0.29,-3.123 z"
         style="fill:#4d8b34;fill-opacity:1;fill-rule:nonzero;stroke:none"
         id="path86"
         inkscape:connector-curvature="0" /><path
         d="m 156.7544,175.041 c -1.213,-1.034 -2.316,-1.763 -3.308,-2.182 -0.994,-0.421 -2.042,-0.631 -3.145,-0.631 -2.055,0 -3.589,0.554 -4.602,1.666 -1.014,1.109 -1.52,2.788 -1.52,5.036 l 0,11.561 -2.586,0 0,1.426 c 0.842,0.138 1.462,0.345 1.862,0.621 0.4,0.276 0.711,0.644 0.931,1.106 0.22,0.463 0.396,1.065 0.527,1.811 0.132,0.744 0.231,1.675 0.3,2.792 l 4.943,0 0,-5.171 5.895,0 0,-2.585 -5.895,0 0,-9.328 c 0,-1.559 0.073,-2.709 0.216,-3.453 0.147,-0.746 0.391,-1.294 0.735,-1.645 0.346,-0.352 0.772,-0.528 1.283,-0.528 0.386,0 0.73,0.035 1.034,0.104 0.304,0.069 0.624,0.193 0.962,0.372 0.337,0.179 0.692,0.433 1.065,0.765 l 1.303,-1.737 z"
         style="fill:#4d8b34;fill-opacity:1;fill-rule:nonzero;stroke:none"
         id="path90"
         inkscape:connector-curvature="0" /><path
         d="m 156.7744,193.0757 8.047,0 0,-11.479 c 0,-1.323 0.041,-2.357 0.124,-3.102 0.082,-0.745 0.241,-1.335 0.475,-1.768 0.235,-0.436 0.521,-0.752 0.86,-0.951 0.336,-0.2 0.767,-0.3 1.292,-0.3 0.509,0 1.047,0.158 1.613,0.475 0.565,0.317 1.044,0.762 1.437,1.335 0.394,0.572 0.59,1.182 0.59,1.83 l 0,7.983 c 0,1.006 -0.022,1.755 -0.062,2.244 -0.043,0.489 -0.122,0.872 -0.238,1.148 -0.118,0.275 -0.3,0.506 -0.549,0.693 -0.247,0.186 -0.654,0.362 -1.219,0.527 l 0,1.365 8.066,0 0,-14.477 c 0,-1.048 0.016,-1.814 0.05,-2.296 0.035,-0.482 0.115,-0.869 0.239,-1.158 0.125,-0.29 0.324,-0.528 0.6,-0.714 0.276,-0.186 0.738,-0.349 1.386,-0.486 l 0,-1.385 -5.626,-0.187 -2.502,0 0.186,2.979 -0.248,0.061 c -1.283,-1.185 -2.428,-2.013 -3.433,-2.481 -1.006,-0.469 -2.021,-0.704 -3.041,-0.704 -1.462,0 -2.63,0.272 -3.505,0.818 -0.877,0.543 -1.507,1.343 -1.894,2.399 -0.384,1.054 -0.578,2.416 -0.578,4.085 l 0,7.569 c 0,0.772 -0.01,1.365 -0.032,1.778 -0.02,0.415 -0.052,0.735 -0.092,0.963 -0.042,0.227 -0.101,0.434 -0.177,0.621 -0.075,0.185 -0.179,0.353 -0.31,0.506 -0.131,0.151 -0.31,0.289 -0.538,0.413 -0.227,0.125 -0.534,0.235 -0.921,0.331 l 0,1.365 z"
         style="fill:#4d8b34;fill-opacity:1;fill-rule:nonzero;stroke:none"
         id="path94"
         inkscape:connector-curvature="0" /><path
         d="m 187.7178,186.4365 c 0,-1.736 0.245,-3.03 0.734,-3.877 0.49,-0.848 1.258,-1.273 2.306,-1.273 0.951,0 1.678,0.394 2.182,1.179 0.504,0.785 0.755,1.985 0.755,3.599 0,1.696 -0.246,2.989 -0.735,3.877 -0.489,0.89 -1.237,1.335 -2.244,1.335 -1.02,0 -1.774,-0.397 -2.264,-1.19 -0.489,-0.792 -0.734,-2.009 -0.734,-3.65 m -0.746,-15.201 c -0.495,-0.387 -0.87,-0.807 -1.127,-1.262 -0.255,-0.454 -0.382,-0.979 -0.382,-1.572 0,-0.992 0.432,-1.727 1.293,-2.202 0.861,-0.477 2.224,-0.714 4.085,-0.714 1.737,0 3.058,0.289 3.96,0.868 0.902,0.579 1.355,1.394 1.355,2.441 0,0.469 -0.083,0.869 -0.249,1.2 -0.165,0.332 -0.489,0.607 -0.971,0.827 -0.483,0.22 -1.165,0.332 -2.048,0.332 l -3.557,0 c -1.007,0 -1.793,0.027 -2.359,0.082 m 14.706,19.07 -3.537,0.392 -0.082,-0.228 c 0.386,-0.386 0.708,-0.913 0.962,-1.582 0.255,-0.669 0.383,-1.472 0.383,-2.409 0,-2.399 -0.727,-4.219 -2.183,-5.46 -1.454,-1.241 -3.596,-1.862 -6.422,-1.862 -1.364,0 -2.481,0.125 -3.351,0.373 -0.689,-0.621 -1.034,-1.289 -1.034,-2.007 0,-0.414 0.088,-0.732 0.259,-0.951 0.172,-0.221 0.467,-0.39 0.88,-0.506 0.414,-0.118 0.999,-0.177 1.757,-0.177 l 5.13,0 c 2.3,0 4.024,-0.447 5.17,-1.345 1.144,-0.894 1.718,-2.288 1.718,-4.177 0,-1.476 -0.419,-2.743 -1.253,-3.805 -0.835,-1.062 -2.031,-1.872 -3.588,-2.431 -1.558,-0.558 -3.407,-0.838 -5.543,-0.838 -1.559,0 -2.971,0.069 -4.241,0.207 -1.267,0.139 -2.35,0.39 -3.247,0.754 -0.896,0.368 -1.587,0.867 -2.077,1.502 -0.491,0.633 -0.735,1.441 -0.735,2.419 0,0.785 0.248,1.51 0.745,2.171 0.495,0.661 1.193,1.227 2.089,1.696 -0.578,0.415 -1,0.89 -1.262,1.428 -0.262,0.537 -0.392,1.199 -0.392,1.986 0,0.647 0.133,1.253 0.403,1.819 0.268,0.565 0.627,1.079 1.075,1.541 0.447,0.462 1.031,0.968 1.748,1.52 -1.074,0.607 -1.89,1.402 -2.441,2.39 -0.552,0.984 -0.828,2.14 -0.828,3.463 0,1.283 0.232,2.381 0.693,3.299 0.463,0.917 1.097,1.665 1.902,2.243 0.809,0.58 1.76,1.004 2.856,1.272 1.096,0.27 2.278,0.404 3.548,0.404 0.702,0 1.323,-0.034 1.86,-0.103 0.537,-0.07 1.06,-0.145 1.571,-0.228 l 7.467,0 0,-2.77 z"
         style="fill:#4d8b34;fill-opacity:1;fill-rule:nonzero;stroke:none"
         id="path98"
         inkscape:connector-curvature="0" /><path
         d="m 214.0469,182.3203 c -2.138,-0.055 -3.72,-0.455 -4.747,-1.199 -1.027,-0.744 -1.541,-1.834 -1.541,-3.268 0,-0.854 0.234,-1.506 0.704,-1.954 0.469,-0.448 1.117,-0.672 1.944,-0.672 0.634,0 1.233,0.168 1.798,0.506 0.567,0.339 1.014,0.79 1.346,1.356 0.331,0.564 0.496,1.164 0.496,1.798 l 0,3.433 z m 0.683,-7.052 -0.311,0.104 c -1.131,-1.104 -2.231,-1.903 -3.3,-2.399 -1.068,-0.498 -2.203,-0.746 -3.401,-0.746 -1.187,0 -2.217,0.218 -3.092,0.653 -0.876,0.434 -1.536,1.037 -1.984,1.809 -0.449,0.772 -0.673,1.661 -0.673,2.668 0,2.027 0.995,3.622 2.988,4.788 1.992,1.165 5.016,1.9 9.069,2.203 l 0,1.965 c 0,1.282 -0.144,2.271 -0.433,2.967 -0.29,0.696 -0.663,1.186 -1.117,1.468 -0.456,0.283 -1,0.425 -1.634,0.425 -0.636,0 -1.183,-0.11 -1.644,-0.332 -0.463,-0.22 -0.88,-0.637 -1.254,-1.251 -0.37,-0.613 -0.646,-1.465 -0.825,-2.554 l -3.91,0 0,3.764 c 1.27,0.566 2.323,1.001 3.164,1.304 0.84,0.302 1.672,0.554 2.492,0.754 0.822,0.201 1.556,0.341 2.203,0.424 0.649,0.083 1.295,0.124 1.946,0.124 1.666,0 3.001,-0.22 4,-0.662 0.999,-0.441 1.749,-1.157 2.245,-2.15 0.495,-0.993 0.744,-2.365 0.744,-4.116 l 0,-8.067 c 0,-0.909 0.021,-1.612 0.063,-2.109 0.041,-0.497 0.105,-0.866 0.196,-1.106 0.089,-0.242 0.202,-0.435 0.341,-0.58 0.137,-0.145 0.306,-0.262 0.506,-0.351 0.201,-0.091 0.576,-0.204 1.128,-0.341 l 0,-1.365 -7.694,0 0.187,2.709 z"
         style="fill:#4d8b34;fill-opacity:1;fill-rule:nonzero;stroke:none"
         id="path102"
         inkscape:connector-curvature="0" /></g><g
       id="g4415"><path
         d="m 234.873,183.7271 8.645,0 -3.929,13.34 -4.716,-13.34 z m 7.941,-11.167 0,1.012 c 0.691,0.138 1.204,0.29 1.542,0.455 0.336,0.165 0.588,0.396 0.753,0.694 0.167,0.295 0.249,0.692 0.249,1.188 0,0.469 -0.054,0.976 -0.165,1.521 -0.11,0.545 -0.269,1.154 -0.476,1.831 l -0.765,2.667 -9.639,0 -0.704,-2.028 c -0.357,-1.019 -0.59,-1.792 -0.7,-2.315 -0.111,-0.525 -0.168,-1 -0.168,-1.428 0,-0.827 0.211,-1.433 0.633,-1.819 0.419,-0.386 1.064,-0.642 1.934,-0.766 l 0,-1.012 -8.832,0 0,1.012 c 0.77,0.124 1.443,0.572 2.016,1.344 0.572,0.772 1.127,1.875 1.665,3.31 l 8.624,22.895 3.267,0 7.034,-23.061 c 0.33,-1.076 0.623,-1.895 0.879,-2.461 0.255,-0.566 0.561,-1.006 0.92,-1.325 0.358,-0.315 0.847,-0.55 1.468,-0.702 l 0,-1.012 -9.535,0 z"
         style="fill:#213818;fill-opacity:1;fill-rule:nonzero;stroke:none"
         id="path106"
         inkscape:connector-curvature="0" /><path
         d="m 258.0996,186.0439 c 0,-1.724 0.352,-3.054 1.055,-3.992 0.703,-0.937 1.716,-1.405 3.04,-1.405 0.704,0 1.303,0.134 1.8,0.403 0.496,0.268 0.899,0.637 1.21,1.105 0.309,0.469 0.538,1.01 0.683,1.624 0.144,0.613 0.217,1.258 0.217,1.933 0,1.215 -0.173,2.228 -0.518,3.041 -0.345,0.813 -0.813,1.41 -1.406,1.789 -0.593,0.379 -1.276,0.568 -2.049,0.568 -1.308,0 -2.308,-0.433 -2.998,-1.302 -0.687,-0.869 -1.034,-2.123 -1.034,-3.764 m 0.518,-13.816 c -0.705,-0.523 -1.231,-1.079 -1.581,-1.664 -0.352,-0.586 -0.53,-1.251 -0.53,-1.997 0,-1.24 0.492,-2.153 1.48,-2.741 0.985,-0.585 2.492,-0.878 4.519,-0.878 1.241,0 2.306,0.166 3.195,0.496 0.888,0.33 1.569,0.807 2.036,1.427 0.47,0.621 0.705,1.345 0.705,2.172 0,0.386 -0.049,0.762 -0.145,1.127 -0.096,0.366 -0.279,0.693 -0.548,0.983 -0.269,0.289 -0.652,0.52 -1.148,0.694 -0.496,0.171 -1.145,0.257 -1.944,0.257 l -3.082,0 c -1.116,0 -2.103,0.041 -2.957,0.124 m 13.835,18.015 -3.826,0.144 -0.185,-0.227 c 0.427,-0.428 0.764,-1.011 1.013,-1.748 0.249,-0.738 0.373,-1.534 0.373,-2.389 0,-2.248 -0.695,-3.981 -2.079,-5.202 -1.387,-1.219 -3.355,-1.83 -5.905,-1.83 -1.145,0 -2.132,0.145 -2.957,0.435 -1.049,-0.801 -1.573,-1.586 -1.573,-2.358 0,-0.51 0.101,-0.896 0.3,-1.159 0.201,-0.261 0.531,-0.448 0.994,-0.557 0.462,-0.112 1.161,-0.166 2.097,-0.166 l 4.964,0 c 1.462,0 2.656,-0.227 3.579,-0.683 0.924,-0.455 1.582,-1.064 1.975,-1.83 0.394,-0.766 0.59,-1.657 0.59,-2.679 0,-1.296 -0.371,-2.45 -1.116,-3.464 -0.746,-1.013 -1.822,-1.802 -3.228,-2.368 -1.405,-0.565 -3.047,-0.847 -4.921,-0.847 -1.393,0 -2.666,0.081 -3.818,0.248 -1.151,0.165 -2.137,0.445 -2.957,0.836 -0.82,0.393 -1.454,0.913 -1.902,1.551 -0.449,0.642 -0.672,1.447 -0.672,2.411 0,0.869 0.29,1.658 0.869,2.368 0.578,0.71 1.398,1.334 2.46,1.871 -0.648,0.261 -1.157,0.649 -1.53,1.159 -0.373,0.51 -0.558,1.109 -0.558,1.8 0,0.785 0.22,1.505 0.662,2.16 0.44,0.655 1.22,1.403 2.337,2.244 -0.993,0.58 -1.748,1.366 -2.266,2.357 -0.516,0.994 -0.775,2.124 -0.775,3.392 0,1.186 0.197,2.217 0.59,3.093 0.392,0.876 0.937,1.599 1.633,2.171 0.696,0.573 1.519,1 2.472,1.283 0.952,0.283 1.977,0.424 3.083,0.424 0.991,0 1.977,-0.118 2.957,-0.351 l 7.32,0 0,-2.089 z"
         style="fill:#213818;fill-opacity:1;fill-rule:nonzero;stroke:none"
         id="path110"
         inkscape:connector-curvature="0" /><path
         d="m 273.3428,200.79 22.379,0 0,-7.197 -2.027,0 c -0.302,1.186 -0.603,2.123 -0.899,2.813 -0.298,0.69 -0.61,1.213 -0.941,1.571 -0.33,0.359 -0.687,0.614 -1.066,0.766 -0.381,0.151 -0.947,0.227 -1.707,0.227 l -2.627,0 0,-21.178 c 0,-0.814 0.046,-1.462 0.136,-1.944 0.089,-0.484 0.228,-0.867 0.414,-1.148 0.186,-0.283 0.437,-0.504 0.755,-0.662 0.316,-0.158 0.812,-0.314 1.488,-0.466 l 0,-1.012 -9.452,0 0,1.012 c 0.413,0.097 0.778,0.2 1.098,0.311 0.315,0.11 0.575,0.244 0.774,0.403 0.2,0.158 0.364,0.361 0.495,0.61 0.131,0.248 0.237,0.585 0.312,1.013 0.077,0.428 0.113,1.055 0.113,1.883 l 0,21.178 -2.605,0 c -0.649,0 -1.182,-0.062 -1.603,-0.186 -0.421,-0.124 -0.81,-0.382 -1.169,-0.776 -0.357,-0.393 -0.686,-0.951 -0.982,-1.675 -0.296,-0.724 -0.574,-1.638 -0.839,-2.74 l -2.047,0 0,7.197 z"
         style="fill:#213818;fill-opacity:1;fill-rule:nonzero;stroke:none"
         id="path114"
         inkscape:connector-curvature="0" /><path
         d="m 307.8623,184.4717 c -0.082,1.489 -0.269,2.706 -0.558,3.651 -0.29,0.944 -0.723,1.668 -1.302,2.172 -0.579,0.503 -1.338,0.754 -2.277,0.754 -1.419,0 -2.552,-0.568 -3.401,-1.706 -0.848,-1.138 -1.349,-2.761 -1.499,-4.871 l 9.037,0 z m 3.475,-8.396 c -0.882,-0.924 -1.693,-1.648 -2.431,-2.172 -0.735,-0.524 -1.547,-0.935 -2.428,-1.231 -0.884,-0.296 -1.855,-0.445 -2.917,-0.445 -2.842,0 -4.985,0.851 -6.432,2.555 -1.449,1.703 -2.173,4.215 -2.173,7.538 0,2.055 0.369,3.868 1.106,5.44 0.738,1.571 1.789,2.784 3.155,3.64 1.365,0.854 2.937,1.282 4.716,1.282 1.393,0 2.576,-0.222 3.558,-0.662 0.977,-0.441 1.76,-1.045 2.346,-1.81 0.587,-0.765 1.04,-1.73 1.366,-2.894 0.323,-1.167 0.507,-2.687 0.548,-4.561 l -13.031,0 0,-0.373 c 0,-1.626 0.184,-2.994 0.55,-4.105 0.363,-1.11 0.964,-1.979 1.798,-2.606 0.835,-0.628 1.92,-0.941 3.259,-0.941 1.13,0 2.147,0.211 3.05,0.631 0.902,0.421 1.802,1.106 2.697,2.058 l 1.263,-1.344 z"
         style="fill:#213818;fill-opacity:1;fill-rule:nonzero;stroke:none"
         id="path118"
         inkscape:connector-curvature="0" /><path
         d="m 330.0352,191.8555 0,-4.323 -2.626,0 c -0.236,0.896 -0.523,1.603 -0.869,2.12 -0.345,0.517 -0.744,0.879 -1.2,1.086 -0.455,0.207 -1.02,0.31 -1.696,0.31 -0.964,0 -1.821,-0.31 -2.564,-0.93 -0.745,-0.62 -1.335,-1.565 -1.769,-2.834 -0.434,-1.268 -0.651,-2.819 -0.651,-4.653 0,-1.172 0.083,-2.244 0.248,-3.215 0.166,-0.973 0.449,-1.804 0.849,-2.494 0.398,-0.689 0.93,-1.227 1.592,-1.613 0.662,-0.387 1.481,-0.579 2.46,-0.579 0.953,0 1.837,0.186 2.658,0.559 0.819,0.372 1.673,1.027 2.554,1.963 l 1.178,-1.364 c -0.701,-0.771 -1.322,-1.369 -1.859,-1.789 -0.538,-0.42 -1.114,-0.772 -1.727,-1.054 -0.615,-0.284 -1.22,-0.49 -1.82,-0.621 -0.599,-0.131 -1.251,-0.197 -1.955,-0.197 -2.606,0 -4.598,0.865 -5.978,2.596 -1.378,1.73 -2.068,4.23 -2.068,7.497 0,2.041 0.386,3.851 1.158,5.43 0.773,1.578 1.855,2.794 3.248,3.65 1.393,0.854 2.999,1.282 4.818,1.282 1.13,0 2.175,-0.065 3.134,-0.195 0.959,-0.132 1.92,-0.342 2.885,-0.632"
         style="fill:#213818;fill-opacity:1;fill-rule:nonzero;stroke:none"
         id="path122"
         inkscape:connector-curvature="0" /><path
         d="m 337.999,189.0845 0.084,-0.021 c 1.074,1.089 1.926,1.852 2.552,2.286 0.629,0.434 1.248,0.761 1.862,0.982 0.613,0.221 1.272,0.331 1.975,0.331 0.759,0 1.433,-0.091 2.028,-0.269 0.594,-0.18 1.112,-0.451 1.561,-0.817 0.448,-0.365 0.813,-0.814 1.095,-1.345 0.283,-0.531 0.493,-1.165 0.632,-1.902 0.138,-0.738 0.207,-1.672 0.207,-2.803 l 0,-7.796 c 0,-1.201 0.052,-2.018 0.154,-2.452 0.104,-0.434 0.29,-0.772 0.56,-1.013 0.269,-0.241 0.81,-0.473 1.622,-0.693 l 0,-1.013 -8.148,0 0,1.013 c 0.538,0.166 0.924,0.31 1.158,0.434 0.234,0.124 0.43,0.296 0.59,0.518 0.16,0.22 0.283,0.561 0.372,1.022 0.09,0.463 0.134,1.163 0.134,2.1 l 0,5.419 c 0,1.833 -0.092,3.237 -0.279,4.209 -0.186,0.972 -0.551,1.7 -1.096,2.182 -0.545,0.482 -1.306,0.724 -2.287,0.724 -0.55,0 -1.046,-0.097 -1.487,-0.289 -0.44,-0.194 -0.951,-0.538 -1.532,-1.035 -0.579,-0.496 -1.017,-1.006 -1.314,-1.53 -0.296,-0.524 -0.443,-1.083 -0.443,-1.676 l 0,-7.92 c 0,-0.939 0.024,-1.607 0.07,-2.007 0.05,-0.4 0.143,-0.733 0.283,-1.003 0.136,-0.269 0.346,-0.49 0.628,-0.662 0.284,-0.173 0.722,-0.335 1.314,-0.486 l 0,-1.013 -8.189,0 0,1.013 c 0.605,0.166 1.04,0.324 1.301,0.475 0.263,0.153 0.467,0.345 0.612,0.58 0.144,0.234 0.252,0.572 0.321,1.013 0.067,0.441 0.101,1.138 0.101,2.09 l 0,17.31 c 0,1.324 -0.008,2.248 -0.03,2.772 -0.02,0.523 -0.076,0.968 -0.165,1.334 -0.09,0.365 -0.214,0.651 -0.372,0.857 -0.16,0.208 -0.374,0.373 -0.642,0.498 -0.269,0.123 -0.755,0.248 -1.459,0.371 l 0,1.076 4.986,0.206 1.241,0 0,-13.07 z"
         style="fill:#213818;fill-opacity:1;fill-rule:nonzero;stroke:none"
         id="path126"
         inkscape:connector-curvature="0" /></g></g></svg>