<?xml version="1.0" encoding="utf-8"?>
<!-- Generator: Adobe Illustrator 24.0.3, SVG Export Plug-In . SVG Version: 6.00 Build 0)  -->
<svg version="1.1" id="Layer_1" xmlns="http://www.w3.org/2000/svg" xmlns:xlink="http://www.w3.org/1999/xlink" x="0px" y="0px"
	 viewBox="0 0 360 121.2" style="enable-background:new 0 0 360 121.2;" xml:space="preserve">
<style type="text/css">
	.st0{clip-path:url(#SVGID_2_);}
	.st1{fill-rule:evenodd;clip-rule:evenodd;fill:#845EF7;}
	.st2{fill-rule:evenodd;clip-rule:evenodd;fill:#271142;}
</style>
<g>
	<defs>
		<rect id="SVGID_1_" x="0.4" y="1.3" width="359.2" height="117.6"/>
	</defs>
	<clipPath id="SVGID_2_">
		<use xlink:href="#SVGID_1_"  style="overflow:visible;"/>
	</clipPath>
	<g class="st0">
		<path class="st1" d="M91.9,17c20.9,20.9,20.9,54.9,0,75.8s-54.9,20.9-75.8,0C-4.8,71.9-4.8,38,16.1,17C37-3.9,70.9-3.9,91.9,17z
			 M78.4,22.2L68.4,32.3c-8.7-5.6-20-5.6-28.8,0L29.5,22.2C44,11.4,64,11.4,78.4,22.2z M86.7,30.5L76.6,40.6c5.6,8.7,5.6,20,0,28.8
			l10.1,10.1C97.5,64.9,97.5,44.9,86.7,30.5z M78.4,87.6L68.4,77.5c-8.7,5.6-20,5.6-28.8,0L29.5,87.6C44,98.4,64,98.4,78.4,87.6z
			 M25.2,83.9L25,83.7L25.2,83.9L25.2,83.9z M21.3,79.4l10.1-10.1c-5.6-8.7-5.6-20,0-28.8L21.3,30.5C10.5,44.9,10.5,64.9,21.3,79.4z
			 M62.7,63.7c4.8-4.8,4.8-12.7,0-17.5c-4.8-4.8-12.7-4.8-17.5,0c-4.8,4.8-4.8,12.7,0,17.5C50.1,68.5,57.9,68.5,62.7,63.7z"/>
		<path class="st2" d="M288.3,19.5V95h-17.2V19.5H288.3z M189.6,95V22.9h-17.1v28.3h-27.6V22.9h-17.2V95H145V66.7h27.5V95H189.6z
			 M241.1,95h17.2V41.8h-17.2v4.4c-4.1-4-9.7-6.2-15.5-6.2c-14.3,0-25.8,12.7-25.8,28.3s11.5,28.3,25.8,28.3
			c5.8,0,11.3-2.2,15.5-6.2V95z M240.5,63.5c0.6,1.6,0.8,3.2,0.7,4.9c0.1,1.6-0.1,3.3-0.7,4.9c-0.6,1.6-1.4,3-2.5,4.2
			s-2.5,2.2-4,2.8c-1.5,0.7-3.1,1-4.8,1c-1.7,0-3.3-0.3-4.8-1c-1.5-0.7-2.9-1.6-4-2.8c-1.1-1.2-2-2.6-2.5-4.2s-0.8-3.2-0.7-4.9
			c-0.1-1.6,0.1-3.3,0.7-4.9c0.6-1.6,1.4-3,2.5-4.2c1.1-1.2,2.5-2.2,4-2.8c1.5-0.7,3.1-1,4.8-1c1.7,0,3.3,0.3,4.8,1
			c1.5,0.7,2.9,1.6,4,2.8C239,60.6,239.9,62,240.5,63.5z M333.8,96.7c14.3,0,25.8-12.6,25.8-28.3c0-15.7-11.5-28.3-25.8-28.3
			c-5.8,0-11.3,2.2-15.5,6.2v-4.5h-17.2v80.7h17.2v-32C322.5,94.4,328,96.7,333.8,96.7z M341.8,63.5c0.5,1.6,0.8,3.2,0.6,4.9
			c0.1,1.6-0.2,3.3-0.7,4.8c-0.6,1.5-1.4,2.9-2.6,4.1c-1.1,1.2-2.5,2.1-4,2.8c-1.5,0.6-3.1,1-4.8,1c-1.6,0-3.3-0.3-4.8-1
			c-1.5-0.6-2.9-1.6-4-2.8c-1.1-1.2-2-2.6-2.6-4.1c-0.6-1.5-0.8-3.2-0.7-4.8c-0.1-1.7,0.1-3.3,0.6-4.9c0.5-1.6,1.4-3,2.5-4.2
			c1.1-1.2,2.5-2.2,4-2.9c1.5-0.7,3.2-1,4.8-1c1.7,0,3.3,0.3,4.8,1c1.5,0.7,2.9,1.6,4,2.9C340.4,60.5,341.3,61.9,341.8,63.5z"/>
	</g>
</g>
</svg>
