<?xml version="1.0" encoding="utf-8"?>
<!-- Generator: Adobe Illustrator 18.1.0, SVG Export Plug-In . SVG Version: 6.00 Build 0)  -->
<svg version="1.1" id="Layer_1" xmlns="http://www.w3.org/2000/svg" xmlns:xlink="http://www.w3.org/1999/xlink" x="0px" y="0px"
	 viewBox="0 0 178 29" enable-background="new 0 0 178 29" xml:space="preserve">
<g>
	<g>
		<g>
			<path fill="#424242" d="M29.6,28.6c-3.3,0-5.7-0.9-8.1-2.7c-2,1.2-4.2,2.3-7.4,2.3C6.4,28.2,0.4,22,0.4,14.4
				C0.4,6.8,6.6,0.8,14,0.8c7.5,0,13.6,6,13.6,13.6c0,2.8-0.7,5.5-2.4,7.8c0.6,0.4,1.2,0.7,2,0.7v-2.1h4.7v7.5
				C31.1,28.5,30.3,28.6,29.6,28.6z M14,7.3c-3.9,0-6.8,3-7,6.2c1-0.4,2.1-0.8,4-0.8c3.6,0,6.5,1.7,9.3,5c0.5-0.9,0.8-2.1,0.8-3.1
				C21.1,10.3,17.7,7.3,14,7.3z M10.6,17.9c-1.1,0-1.7,0.3-2.4,0.7c1.4,2,3.5,3.1,5.9,3.1c1.1,0,1.7-0.2,2.3-0.5
				C14.8,19.2,13,17.9,10.6,17.9z"/>
			<path fill="#424242" d="M45.4,27.6v-2c-1.3,1.7-3.5,2.4-5.5,2.4c-3.7,0-7-2.7-7-7.5v-7.3h-2.1V7.8h8v11c0,2.6,1.1,3.8,3,3.8
				c2.2,0,3.2-1.4,3.2-4.1v-5.5h-2.1V7.8h8.1v14.4H53v5.4H45.4z"/>
			<path fill="#424242" d="M54.2,27.6v-5.4h2.1v-9.1h-2.1V7.8h8v14.4h2.1v5.4H54.2z M56.3,6.7V1.3h5.9v5.4H56.3z"/>
			<path fill="#424242" d="M74.7,28.2c-5.6,0-10.4-4.6-10.4-10.6c0-5.9,4.7-10.5,9.9-10.5c1.9,0,3.4,0.7,4.8,2.1V7.8h4.9v7.1h-5.5
				c-1-1.2-2.1-2-3.8-2c-2.6,0-4.5,2.2-4.5,4.8c0,2.7,2.1,4.8,4.7,4.8c1.4,0,2.7-0.6,3.4-1.8h6.5C83.3,25.5,78.9,28.2,74.7,28.2z"/>
			<path fill="#424242" d="M99.9,27.6l-6.7-8.9v8.9h-8v-5.4h2.1V6.7h-2.1V1.3h8v15.4l3.7-4.1h-1.7V7.8h10.3v5.4h-1.9l-4.2,4.4
				l4.2,4.7h2.8v5.4H99.9z"/>
			<path fill="#424242" d="M112.7,27.6v-5.4h2.5V6.7h-2.5V1.3h11.6v5.4h-2.5v15.1h4.9V19h6.4v8.7H112.7z"/>
			<path fill="#424242" d="M154.2,19.9h-14.7c1,2.1,2.8,3.2,4.9,3.2c1.4,0,2.6-0.4,3.4-1.4h6c-1.6,3.9-5.2,6.6-9.4,6.6
				c-5.6,0-10.5-4.3-10.5-10.5c0-6,4.7-10.5,10.3-10.5c5.4,0,10.3,4.2,10.3,10.4C154.5,18.5,154.4,19.2,154.2,19.9z M144.1,12.3
				c-2,0-3.9,1.2-4.7,3.3h9.7C148.2,13.4,146.2,12.3,144.1,12.3z"/>
			<path fill="#424242" d="M162.7,13.1v9.1h2.1v5.4h-10v-5.4h2.1v-9.1h-2.1V7.8h2.1c0.3-5.7,3.1-7.4,8.3-7.4v5.1c-0.2,0-0.3,0-0.5,0
				c-1.5,0-1.9,0.9-1.9,2.3h2.5v5.4H162.7z"/>
			<path fill="#424242" d="M168.9,27.6V13.1h-2.7V7.8h2.7V1.3h5.9v6.4h2.7v5.4h-2.7v9.1h2.8v5.4H168.9z"/>
		</g>
	</g>
</g>
</svg>
